<svg width="107" height="20" viewBox="0 0 107 20" fill="none" xmlns="http://www.w3.org/2000/svg">
<path d="M45.9351 5.52441L42.3242 16H40.1411L44.6899 3.91406H46.0845L45.9351 5.52441ZM48.9565 16L45.3374 5.52441L45.1797 3.91406H46.5825L51.1479 16H48.9565ZM48.7822 11.5176V13.1694H42.208V11.5176H48.7822ZM54.4434 3.25V16H52.4346V3.25H54.4434ZM58.7764 3.25V16H56.7676V3.25H58.7764ZM75.0376 9.625V10.2891C75.0376 11.2021 74.9186 12.0212 74.6807 12.7461C74.4427 13.471 74.1024 14.0881 73.6597 14.5972C73.2225 15.1063 72.6968 15.4964 72.0825 15.7676C71.4683 16.0332 70.7876 16.166 70.0405 16.166C69.299 16.166 68.6211 16.0332 68.0068 15.7676C67.3981 15.4964 66.8696 15.1063 66.4214 14.5972C65.9731 14.0881 65.6245 13.471 65.3755 12.7461C65.132 12.0212 65.0103 11.2021 65.0103 10.2891V9.625C65.0103 8.71191 65.132 7.89567 65.3755 7.17627C65.619 6.45133 65.9621 5.83431 66.4048 5.3252C66.853 4.81055 67.3815 4.42041 67.9902 4.15479C68.6045 3.88363 69.2824 3.74805 70.0239 3.74805C70.771 3.74805 71.4517 3.88363 72.0659 4.15479C72.6802 4.42041 73.2087 4.81055 73.6514 5.3252C74.0941 5.83431 74.4344 6.45133 74.6724 7.17627C74.9159 7.89567 75.0376 8.71191 75.0376 9.625ZM72.9541 10.2891V9.6084C72.9541 8.93327 72.8877 8.33838 72.7549 7.82373C72.6276 7.30355 72.4367 6.86914 72.1821 6.52051C71.9331 6.16634 71.626 5.90072 71.2607 5.72363C70.8955 5.54102 70.4832 5.44971 70.0239 5.44971C69.5646 5.44971 69.1551 5.54102 68.7954 5.72363C68.4357 5.90072 68.1286 6.16634 67.874 6.52051C67.625 6.86914 67.4341 7.30355 67.3013 7.82373C67.1685 8.33838 67.1021 8.93327 67.1021 9.6084V10.2891C67.1021 10.9642 67.1685 11.5618 67.3013 12.082C67.4341 12.6022 67.6278 13.0422 67.8823 13.4019C68.1424 13.756 68.4523 14.0244 68.812 14.207C69.1717 14.3841 69.5812 14.4727 70.0405 14.4727C70.5054 14.4727 70.9176 14.3841 71.2773 14.207C71.637 14.0244 71.9414 13.756 72.1904 13.4019C72.4395 13.0422 72.6276 12.6022 72.7549 12.082C72.8877 11.5618 72.9541 10.9642 72.9541 10.2891ZM78.9307 8.72852V16H76.9302V7.01855H78.8394L78.9307 8.72852ZM81.6782 6.96045L81.6616 8.81982C81.5399 8.79769 81.4071 8.78109 81.2632 8.77002C81.1248 8.75895 80.9865 8.75342 80.8481 8.75342C80.505 8.75342 80.2035 8.80322 79.9434 8.90283C79.6833 8.99691 79.4647 9.13525 79.2876 9.31787C79.116 9.49495 78.9832 9.71077 78.8892 9.96533C78.7951 10.2199 78.7397 10.5049 78.7231 10.8203L78.2666 10.8535C78.2666 10.2891 78.3219 9.76611 78.4326 9.28467C78.5433 8.80322 78.7093 8.37988 78.9307 8.01465C79.1576 7.64941 79.4398 7.36442 79.7773 7.15967C80.1204 6.95492 80.5161 6.85254 80.9644 6.85254C81.0861 6.85254 81.2161 6.86361 81.3545 6.88574C81.4984 6.90788 81.6063 6.93278 81.6782 6.96045ZM88.2441 14.1406V3.25H90.2529V16H88.4351L88.2441 14.1406ZM82.4004 11.6089V11.4346C82.4004 10.7539 82.4806 10.1341 82.6411 9.5752C82.8016 9.01074 83.034 8.52653 83.3384 8.12256C83.6427 7.71305 84.0135 7.40039 84.4507 7.18457C84.8879 6.96322 85.3804 6.85254 85.9282 6.85254C86.4705 6.85254 86.9465 6.95768 87.356 7.16797C87.7655 7.37826 88.1141 7.67985 88.4019 8.07275C88.6896 8.46012 88.9193 8.92497 89.0908 9.46729C89.2624 10.0041 89.3841 10.6017 89.4561 11.2603V11.8164C89.3841 12.4583 89.2624 13.0449 89.0908 13.5762C88.9193 14.1074 88.6896 14.5667 88.4019 14.9541C88.1141 15.3415 87.7627 15.6403 87.3477 15.8506C86.9382 16.0609 86.4595 16.166 85.9116 16.166C85.3693 16.166 84.8796 16.0526 84.4424 15.8257C84.0107 15.5988 83.6427 15.2806 83.3384 14.8711C83.034 14.4616 82.8016 13.9801 82.6411 13.4268C82.4806 12.8678 82.4004 12.2619 82.4004 11.6089ZM84.4009 11.4346V11.6089C84.4009 12.0184 84.4368 12.4002 84.5088 12.7544C84.5863 13.1086 84.7052 13.4212 84.8657 13.6924C85.0262 13.958 85.2337 14.1683 85.4883 14.3232C85.7484 14.4727 86.0583 14.5474 86.418 14.5474C86.8717 14.5474 87.2453 14.4478 87.5386 14.2485C87.8319 14.0493 88.0615 13.7809 88.2275 13.4434C88.3991 13.1003 88.5153 12.7184 88.5762 12.2979V10.7954C88.543 10.4689 88.4738 10.1646 88.3687 9.88232C88.269 9.6001 88.1335 9.35384 87.9619 9.14355C87.7904 8.92773 87.5773 8.76172 87.3228 8.64551C87.0737 8.52376 86.7777 8.46289 86.4346 8.46289C86.0693 8.46289 85.7594 8.54036 85.5049 8.69531C85.2503 8.85026 85.04 9.06331 84.874 9.33447C84.7135 9.60563 84.5946 9.92106 84.5171 10.2808C84.4396 10.6405 84.4009 11.0251 84.4009 11.4346ZM96.3042 16.166C95.6401 16.166 95.0397 16.0581 94.5029 15.8423C93.9717 15.6209 93.5179 15.3138 93.1416 14.9209C92.7708 14.528 92.4858 14.0659 92.2866 13.5347C92.0874 13.0034 91.9878 12.4307 91.9878 11.8164V11.4844C91.9878 10.7816 92.0902 10.1452 92.2949 9.5752C92.4997 9.00521 92.7847 8.51823 93.1499 8.11426C93.5151 7.70475 93.9468 7.39209 94.4448 7.17627C94.9429 6.96045 95.4824 6.85254 96.0635 6.85254C96.7054 6.85254 97.2671 6.96045 97.7485 7.17627C98.23 7.39209 98.6284 7.69645 98.9438 8.08936C99.2648 8.47673 99.5028 8.9388 99.6577 9.47559C99.8182 10.0124 99.8984 10.6045 99.8984 11.252V12.1069H92.959V10.6709H97.9229V10.5132C97.9118 10.1535 97.8398 9.81592 97.707 9.50049C97.5798 9.18506 97.3833 8.9305 97.1177 8.73682C96.8521 8.54313 96.4979 8.44629 96.0552 8.44629C95.7231 8.44629 95.4271 8.51823 95.167 8.66211C94.9124 8.80046 94.6994 9.00244 94.5278 9.26807C94.3563 9.53369 94.2235 9.85465 94.1294 10.231C94.0409 10.6017 93.9966 11.0195 93.9966 11.4844V11.8164C93.9966 12.2093 94.0492 12.5745 94.1543 12.9121C94.265 13.2441 94.4255 13.5347 94.6357 13.7837C94.846 14.0327 95.1006 14.2292 95.3994 14.373C95.6982 14.5114 96.0386 14.5806 96.4204 14.5806C96.9019 14.5806 97.3307 14.4837 97.707 14.29C98.0833 14.0964 98.4098 13.8224 98.6865 13.4683L99.7407 14.4893C99.547 14.7715 99.2952 15.0426 98.9854 15.3027C98.6755 15.5573 98.2964 15.7648 97.8481 15.9253C97.4054 16.0858 96.8908 16.166 96.3042 16.166ZM103.468 8.72852V16H101.467V7.01855H103.376L103.468 8.72852ZM106.215 6.96045L106.199 8.81982C106.077 8.79769 105.944 8.78109 105.8 8.77002C105.662 8.75895 105.524 8.75342 105.385 8.75342C105.042 8.75342 104.741 8.80322 104.48 8.90283C104.22 8.99691 104.002 9.13525 103.825 9.31787C103.653 9.49495 103.52 9.71077 103.426 9.96533C103.332 10.2199 103.277 10.5049 103.26 10.8203L102.804 10.8535C102.804 10.2891 102.859 9.76611 102.97 9.28467C103.08 8.80322 103.246 8.37988 103.468 8.01465C103.695 7.64941 103.977 7.36442 104.314 7.15967C104.658 6.95492 105.053 6.85254 105.501 6.85254C105.623 6.85254 105.753 6.86361 105.892 6.88574C106.035 6.90788 106.143 6.93278 106.215 6.96045Z" fill="#313131"/>
<path d="M2.70973 2.32813C2.89332 2.26212 3.10582 2.28829 3.26676 2.39923C3.58629 2.61094 3.90543 2.82383 4.22418 3.03712C4.54059 3.24493 4.77145 3.57774 4.85192 3.94805C5.42379 6.45938 5.99332 8.97149 6.5652 11.4828C6.66286 11.9438 7.10622 12.2981 7.5777 12.291C9.73981 12.2922 11.9023 12.2914 14.0648 12.2914C14.4226 12.2996 14.7777 12.1109 14.966 11.8055C15.0593 11.6629 15.1019 11.4957 15.1359 11.3309C15.5648 9.44102 15.9949 7.55157 16.4238 5.66173C16.4941 5.36876 16.4328 5.04649 16.2527 4.80391C16.0582 4.53165 15.7261 4.36758 15.3914 4.37501C13.2683 4.37501 11.1449 4.37462 9.02145 4.3754C8.8609 4.38399 8.69645 4.3418 8.57106 4.23829C8.36793 4.08399 8.28161 3.79923 8.36325 3.55782C8.44293 3.29532 8.71129 3.11016 8.98512 3.12501C11.1332 3.1254 13.2816 3.12423 15.43 3.1254C15.9867 3.12657 16.5386 3.3418 16.9492 3.71758C17.4367 4.15665 17.7234 4.81133 17.7027 5.46837C17.7 5.75352 17.6203 6.02891 17.5597 6.30508C17.1429 8.13477 16.73 9.96524 16.3105 11.7941C16.1273 12.5731 15.5043 13.2274 14.7343 13.4465C14.3535 13.568 13.95 13.5383 13.5566 13.5418C11.5511 13.5406 9.54567 13.5438 7.54059 13.5399C6.7152 13.534 5.91911 13.0387 5.54567 12.3031C5.44684 12.1145 5.37926 11.9109 5.33317 11.7035C4.7695 9.22266 4.20504 6.7418 3.64176 4.26055C3.62926 4.19102 3.60114 4.11993 3.53746 4.08282C3.22614 3.87188 2.91207 3.66524 2.59918 3.45665C2.44059 3.35938 2.3234 3.19493 2.29996 3.0086C2.24723 2.72149 2.43317 2.41798 2.70973 2.32813Z" fill="#313131"/>
<path d="M12.4522 6.59259C12.5854 6.45509 12.7834 6.38869 12.9729 6.41408C13.2471 6.44103 13.4834 6.67579 13.5131 6.94962C13.5404 7.14259 13.4713 7.34415 13.3315 7.4797C12.3506 8.46134 11.3697 9.44337 10.3873 10.4235C10.1635 10.6543 9.75724 10.6613 9.52638 10.4371C9.13966 10.0551 8.75763 9.66798 8.3713 9.28517C8.23068 9.16056 8.1381 8.97853 8.14709 8.7879C8.14513 8.51173 8.35412 8.25431 8.62248 8.19337C8.82443 8.14572 9.04865 8.2004 9.19865 8.34572C9.45021 8.59376 9.69904 8.84494 9.94904 9.09415C10.7846 8.26173 11.6178 7.42619 12.4522 6.59259Z" fill="#313131"/>
<path d="M8.17916 14.5914C8.63385 14.5477 9.10416 14.7004 9.44283 15.0074C9.7733 15.3012 9.97877 15.7305 9.99674 16.1723C10.0225 16.6563 9.82135 17.1449 9.46431 17.4723C9.10103 17.8141 8.57799 17.9734 8.0858 17.8969C7.60181 17.8281 7.15885 17.5297 6.90728 17.1109C6.63541 16.6684 6.59244 16.0957 6.79244 15.6164C7.01822 15.0531 7.57408 14.6406 8.17916 14.5914ZM8.25767 15.841C7.95494 15.8824 7.80767 16.2902 8.01392 16.5156C8.20103 16.7637 8.63697 16.6844 8.72525 16.3867C8.84088 16.1016 8.55611 15.7719 8.25767 15.841Z" fill="#313131"/>
<path d="M13.1781 14.5914C13.6344 14.5473 14.1059 14.7008 14.4449 15.0094C14.7734 15.3023 14.9781 15.7293 14.9965 16.1695C15.0234 16.6543 14.8223 17.1438 14.4652 17.4719C14.102 17.8137 13.5781 17.9738 13.0855 17.8969C12.602 17.8277 12.1598 17.5301 11.9082 17.1121C11.6574 16.7039 11.6 16.1855 11.75 15.7313C11.9453 15.1129 12.5313 14.6434 13.1781 14.5914ZM13.257 15.8414C12.9551 15.8832 12.8082 16.2898 13.0137 16.5152C13.1996 16.7625 13.6336 16.6855 13.7242 16.3902C13.843 16.1039 13.557 15.7711 13.257 15.8414Z" fill="#313131"/>
</svg>
