<svg width="20" height="20" viewBox="0 0 20 20" fill="none" xmlns="http://www.w3.org/2000/svg">
<g clip-path="url(#clip0_142_6815)">
<path d="M9.55265 1.31875C10.2776 1.22227 11.0331 1.36524 11.6687 1.72774C12.3679 2.1211 12.9187 2.76992 13.1925 3.52422C13.4519 4.23086 13.4651 5.02461 13.2304 5.73985C12.9804 6.5125 12.4413 7.18672 11.7441 7.60274C11.0757 8.00781 10.2632 8.16524 9.49132 8.04688C8.77921 7.9418 8.10694 7.59805 7.59913 7.08906C7.04171 6.53672 6.68624 5.78516 6.61671 5.00313C6.54249 4.23242 6.74288 3.43867 7.17726 2.79727C7.71046 1.99649 8.59679 1.44024 9.55265 1.31875ZM9.66866 2.48711C9.01593 2.58164 8.41905 2.98633 8.08546 3.5543C7.81358 4.00781 7.71554 4.56016 7.80968 5.08008C7.9046 5.62422 8.21476 6.12617 8.65538 6.4586C9.13077 6.82266 9.75812 6.98438 10.3495 6.88438C10.8921 6.80117 11.3968 6.50469 11.7378 6.075C12.1269 5.59258 12.3011 4.94141 12.1956 4.32969C12.0964 3.69688 11.7054 3.11875 11.1577 2.78828C10.7179 2.51485 10.1796 2.41016 9.66866 2.48711Z" fill="#313131"/>
<path d="M2.79308 3.8164C3.32042 3.7332 3.87785 3.85312 4.31964 4.1539C4.79464 4.4707 5.1341 4.9832 5.23566 5.54531C5.34074 6.10039 5.21456 6.69453 4.89074 7.15742C4.58761 7.59765 4.11574 7.91953 3.5923 8.03281C3.06378 8.15195 2.49035 8.06211 2.02667 7.78008C1.51496 7.47812 1.13917 6.9543 1.02238 6.37109C0.90558 5.81445 1.02199 5.21328 1.34191 4.74258C1.67003 4.25117 2.20831 3.90508 2.79308 3.8164ZM2.90792 4.98555C2.58019 5.05859 2.30011 5.3125 2.19777 5.63281C2.088 5.95625 2.16691 6.33359 2.3966 6.58633C2.67863 6.91367 3.18605 7.00898 3.56808 6.80742C3.86417 6.65742 4.07277 6.34961 4.09738 6.01836C4.12863 5.68125 3.9673 5.33516 3.68956 5.1418C3.46769 4.98047 3.17511 4.92461 2.90792 4.98555Z" fill="#313131"/>
<path d="M16.5415 3.81641C17.0688 3.73282 17.6274 3.85274 18.0696 4.15391C18.5446 4.47071 18.8844 4.9836 18.9856 5.54571C19.0926 6.10977 18.9598 6.71446 18.6243 7.18048C18.3145 7.61876 17.8352 7.93516 17.3083 8.03985C16.7887 8.14845 16.2294 8.05548 15.7755 7.7797C15.2637 7.47696 14.8883 6.95274 14.7719 6.36915C14.6598 5.83126 14.7645 5.25157 15.0614 4.78907C15.3864 4.27384 15.9387 3.90821 16.5415 3.81641ZM16.6583 4.98556C16.1966 5.08243 15.8524 5.54884 15.9024 6.01954C15.9325 6.48243 16.3352 6.88243 16.7981 6.91016C17.2673 6.95782 17.7305 6.61368 17.8266 6.15352C17.9141 5.78751 17.7645 5.38048 17.4618 5.15782C17.2368 4.98516 16.9341 4.92227 16.6583 4.98556Z" fill="#313131"/>
<path d="M1.93164 9.51366C2.43359 9.36366 2.9625 9.42812 3.47852 9.41405C4.03242 9.40116 4.59063 9.55741 5.04844 9.87148C5.45039 10.1363 5.75469 10.523 5.97539 10.9461C6.85273 9.9789 8.14688 9.4078 9.45312 9.41444C10.1145 9.42655 10.7836 9.36913 11.4367 9.49921C12.4254 9.68554 13.3465 10.2035 14.0246 10.9461C14.0988 10.8336 14.152 10.7082 14.2305 10.5984C14.618 10.0125 15.2469 9.59296 15.9375 9.46288C16.2586 9.39726 16.5875 9.41718 16.9133 9.41405C17.2148 9.41679 17.5195 9.39882 17.818 9.45585C18.4289 9.56249 18.9961 9.89491 19.3914 10.3723C19.7504 10.7976 19.9566 11.3394 20 11.8926V16.3824C19.966 16.6266 19.8734 16.8652 19.7082 17.0512C19.4824 17.3144 19.1367 17.466 18.7906 17.4609C17.6168 17.4617 16.4434 17.4601 15.2699 17.4613C15.2375 17.7594 15.116 18.0492 14.9102 18.2687C14.6477 18.5578 14.2574 18.7203 13.868 18.7109C11.2629 18.7098 8.65781 18.7137 6.05273 18.709C5.37891 18.7031 4.78086 18.1312 4.73047 17.4617C3.5168 17.4578 2.30352 17.4656 1.09023 17.4578C0.535156 17.443 0.0542969 16.9726 0 16.4246V11.9262C0.0253906 11.5215 0.134766 11.1203 0.335938 10.7672C0.675 10.1605 1.26172 9.69921 1.93164 9.51366ZM1.54805 11.0773C1.30313 11.3449 1.16797 11.707 1.17227 12.0695C1.17148 13.4758 1.17188 14.8824 1.17188 16.2891C2.35664 16.2891 3.54141 16.2891 4.72656 16.2891C4.72578 15.6258 4.71445 14.9625 4.72383 14.2992C4.725 13.6773 4.80156 13.0492 5.03125 12.4676C5.04766 12.1484 5.05977 11.8133 4.93398 11.5121C4.75391 11.0539 4.32852 10.7047 3.84453 10.6144C3.46523 10.5586 3.0793 10.5976 2.69688 10.5859C2.2668 10.5742 1.83438 10.7547 1.54805 11.0773ZM9.00703 10.6144C8.1668 10.7172 7.37227 11.1371 6.80898 11.7683C6.23633 12.4012 5.9043 13.2469 5.89922 14.1012C5.89727 15.1695 5.89922 16.2379 5.89844 17.3059C5.8957 17.3684 5.90781 17.4359 5.95586 17.4809C6.0207 17.5519 6.12344 17.5375 6.21016 17.5398C8.76289 17.5383 11.3156 17.5394 13.8684 17.5391C13.9816 17.5551 14.1016 17.4676 14.1 17.3492C14.1035 16.2793 14.1008 15.2094 14.1012 14.1394C14.1035 13.3019 13.7953 12.4691 13.2488 11.8344C12.7039 11.1941 11.9266 10.7543 11.0945 10.6289C10.7328 10.5684 10.3648 10.5898 10 10.5859C9.66875 10.5898 9.33633 10.5715 9.00703 10.6144ZM15.0086 11.6851C14.9488 11.8996 14.9625 12.1234 14.9602 12.3433C14.9488 12.4953 15.0367 12.6273 15.0715 12.7707C15.2559 13.3391 15.2754 13.9414 15.2785 14.5336C15.2812 15.1187 15.2746 15.7039 15.2734 16.2887C16.4578 16.2871 17.6426 16.2934 18.827 16.2855C18.8293 14.8808 18.8277 13.4758 18.8277 12.0711C18.8297 11.7832 18.748 11.4945 18.5887 11.2543C18.3355 10.8644 17.8895 10.6086 17.4242 10.5894C17.1113 10.5816 16.798 10.5879 16.4848 10.5859C15.8172 10.5578 15.1672 11.0332 15.0086 11.6851Z" fill="#313131"/>
</g>
<defs>
<clipPath id="clip0_142_6815">
<rect width="20" height="20" fill="white"/>
</clipPath>
</defs>
</svg>
