<svg width="20" height="20" viewBox="0 0 20 20" fill="none" xmlns="http://www.w3.org/2000/svg">
<g clip-path="url(#clip0_142_6736)">
<path d="M3.9105 -0.0104509C3.96516 -0.0105972 4.01981 -0.010777 4.07446 -0.0109873C4.22356 -0.0114621 4.37266 -0.0114552 4.52176 -0.0113627C4.68299 -0.0113467 4.84423 -0.0117787 5.00547 -0.0121485C5.32098 -0.0127958 5.6365 -0.0130121 5.95201 -0.0130557C6.20869 -0.0130929 6.46536 -0.0132538 6.72204 -0.0135011C7.45089 -0.0141887 8.17974 -0.0145495 8.90859 -0.0144909C8.96746 -0.0144862 8.96746 -0.0144862 9.02751 -0.0144814C9.0668 -0.0144782 9.10609 -0.014475 9.14658 -0.0144717C9.78288 -0.01444 10.4192 -0.0151871 11.0555 -0.0162891C11.7099 -0.0174135 12.3644 -0.0179507 13.0188 -0.0178833C13.3858 -0.0178575 13.7528 -0.0180688 14.1198 -0.0189129C14.4323 -0.0196271 14.7448 -0.0197917 15.0574 -0.0192637C15.2166 -0.01901 15.3757 -0.0189988 15.5349 -0.0196819C16.8538 -0.0249769 17.9239 0.192705 18.9062 1.13281C19.5744 1.80383 20.0043 2.73321 20.0108 3.68556C20.0107 3.72456 20.0106 3.76356 20.0104 3.80375C20.0106 3.84637 20.0108 3.88899 20.011 3.9329C20.0115 4.0746 20.0114 4.21629 20.0113 4.35799C20.0116 4.46005 20.0118 4.56211 20.0121 4.66418C20.0128 4.91201 20.013 5.15985 20.013 5.40768C20.0131 5.60939 20.0132 5.81109 20.0135 6.01279C20.0142 6.586 20.0145 7.15922 20.0145 7.73243C20.0145 7.7787 20.0145 7.7787 20.0145 7.82589C20.0145 7.85678 20.0145 7.88766 20.0145 7.91947C20.0144 8.41937 20.0152 8.91926 20.0163 9.41916C20.0174 9.93377 20.0179 10.4484 20.0179 10.963C20.0178 11.2514 20.018 11.5398 20.0189 11.8281C20.0197 12.0996 20.0196 12.3711 20.0191 12.6426C20.019 12.7417 20.0192 12.8409 20.0197 12.9401C20.0252 14.179 19.7423 15.1793 18.8672 16.0937C18.0059 16.9514 16.9608 17.1991 15.7821 17.2034C15.7412 17.2036 15.7002 17.2038 15.658 17.204C15.4415 17.2052 15.2251 17.2059 15.0086 17.2063C14.7858 17.2067 14.5631 17.2086 14.3403 17.2108C14.1681 17.2122 13.9959 17.2127 13.8237 17.2128C13.7416 17.213 13.6594 17.2136 13.5773 17.2147C13.4623 17.216 13.3474 17.2158 13.2325 17.2153C13.199 17.2161 13.1655 17.2168 13.131 17.2175C12.8685 17.2139 12.6993 17.1211 12.5 16.9531C12.3209 16.7435 12.3154 16.5394 12.3237 16.2677C12.3537 16.0653 12.4288 15.9209 12.5781 15.7812C12.7802 15.6456 12.9302 15.6022 13.1751 15.6049C13.2219 15.6045 13.2219 15.6045 13.2696 15.6041C13.372 15.6033 13.4744 15.6036 13.5768 15.6039C13.6487 15.6036 13.7205 15.6031 13.7924 15.6025C13.9814 15.6013 14.1705 15.6009 14.3595 15.6007C14.661 15.6004 14.9626 15.599 15.2641 15.5971C15.3686 15.5966 15.4731 15.5966 15.5776 15.5967C16.4255 15.5948 17.1196 15.4674 17.7637 14.8706C18.4303 14.1655 18.4103 13.2703 18.4085 12.3634C18.4086 12.2719 18.4088 12.1804 18.4089 12.0889C18.4093 11.842 18.4092 11.595 18.4089 11.348C18.4087 11.115 18.4089 10.882 18.409 10.649C18.4092 10.1595 18.409 9.66989 18.4085 9.18031C18.4082 8.76144 18.4082 8.34257 18.4086 7.92369C18.409 7.43571 18.4092 6.94772 18.4089 6.45973C18.4088 6.20199 18.4088 5.94424 18.4091 5.6865C18.4093 5.4441 18.4091 5.20171 18.4087 4.95931C18.4086 4.87074 18.4086 4.78217 18.4088 4.6936C18.4103 3.83404 18.3894 3.07578 17.8125 2.38281C17.7917 2.35758 17.7709 2.33235 17.7495 2.30636C17.3279 1.8429 16.7408 1.64487 16.1328 1.60156C15.9631 1.59623 15.7936 1.59611 15.6238 1.59633C15.5738 1.59625 15.5238 1.59616 15.4722 1.59607C15.3343 1.59583 15.1964 1.59583 15.0585 1.59588C14.9094 1.59589 14.7603 1.59567 14.6111 1.59549C14.3194 1.59516 14.0276 1.59505 13.7358 1.59503C13.4985 1.59501 13.2612 1.59493 13.0239 1.59481C12.3502 1.59447 11.6765 1.59429 11.0028 1.59431C10.9666 1.59432 10.9303 1.59432 10.8929 1.59432C10.8566 1.59432 10.8203 1.59432 10.7829 1.59432C10.1945 1.59434 9.60605 1.59397 9.01763 1.59342C8.41262 1.59285 7.80761 1.59258 7.20259 1.59262C6.86326 1.59263 6.52393 1.59253 6.18459 1.5921C5.89567 1.59175 5.60674 1.59166 5.31782 1.59193C5.1706 1.59206 5.02338 1.59206 4.87616 1.59172C4.71609 1.59135 4.55603 1.5916 4.39596 1.5919C4.35009 1.5917 4.30422 1.5915 4.25697 1.59129C3.54286 1.59424 2.94043 1.72325 2.38279 2.1875C2.35757 2.20829 2.33234 2.22909 2.30635 2.25051C1.82705 2.68653 1.64523 3.28123 1.60154 3.90625C1.59667 4.04084 1.59609 4.17522 1.59632 4.30989C1.59619 4.36724 1.59619 4.36724 1.59605 4.42576C1.59581 4.55261 1.59584 4.67947 1.59587 4.80632C1.59575 4.8978 1.59562 4.98928 1.59547 5.08075C1.59513 5.32837 1.59504 5.57598 1.59501 5.8236C1.59498 6.00459 1.59486 6.18557 1.59474 6.36656C1.59442 6.85379 1.59427 7.34102 1.5943 7.82825C1.5943 7.86966 1.5943 7.86966 1.59431 7.91191C1.59431 7.95337 1.59431 7.95337 1.59431 7.99567C1.59433 8.44335 1.59395 8.89104 1.5934 9.33873C1.59284 9.79962 1.59257 10.2605 1.5926 10.7214C1.59262 10.9797 1.5925 11.2379 1.59209 11.4962C1.59171 11.7393 1.59171 11.9823 1.59199 12.2253C1.59203 12.3141 1.59194 12.403 1.59171 12.4918C1.58935 13.4361 1.64146 14.2223 2.31688 14.9512C2.93946 15.536 3.68359 15.5923 4.49401 15.5902C4.55661 15.5902 4.61921 15.5902 4.68182 15.5903C4.81592 15.5903 4.95003 15.5903 5.08414 15.5901C5.29643 15.59 5.50872 15.5903 5.72101 15.5908C5.75694 15.5909 5.79287 15.591 5.8299 15.5911C5.90333 15.5912 5.97676 15.5914 6.05019 15.5916C6.5439 15.5927 7.0376 15.5934 7.53131 15.5928C7.86512 15.5923 8.19892 15.5927 8.53274 15.594C8.70909 15.5947 8.88542 15.5949 9.06178 15.5942C9.22759 15.5935 9.39336 15.5938 9.55917 15.595C9.6198 15.5953 9.68045 15.5951 9.74108 15.5946C10.0896 15.5915 10.3615 15.6079 10.625 15.8594C10.8286 16.1021 10.8015 16.3576 10.7965 16.6637C10.7963 16.7144 10.796 16.7652 10.7958 16.8175C10.7952 16.9517 10.7937 17.0858 10.792 17.2199C10.7904 17.3572 10.7896 17.4944 10.7889 17.6316C10.7872 17.9002 10.7845 18.1689 10.7812 18.4375C10.8292 18.4367 10.8292 18.4367 10.8782 18.4359C11.1811 18.4312 11.4839 18.4276 11.7867 18.4254C11.9424 18.4241 12.0981 18.4225 12.2537 18.4198C12.4042 18.4173 12.5546 18.4159 12.7051 18.4153C12.7622 18.4148 12.8194 18.414 12.8766 18.4127C13.2233 18.4053 13.4874 18.4231 13.75 18.6719C13.9291 18.8815 13.9346 19.0856 13.9262 19.3573C13.8962 19.5597 13.8212 19.7041 13.6719 19.8437C13.4751 19.9734 13.3506 20.0196 13.1099 20.0204C13.0821 20.0207 13.0544 20.021 13.0258 20.0213C12.9335 20.0221 12.8413 20.0218 12.749 20.0215C12.6826 20.0218 12.6162 20.0222 12.5497 20.0227C12.3697 20.0237 12.1898 20.0238 12.0098 20.0236C11.8593 20.0235 11.7089 20.0239 11.5584 20.0242C11.2033 20.0251 10.8482 20.0251 10.4932 20.0247C10.1273 20.0242 9.76151 20.0251 9.39568 20.0268C9.08115 20.0282 8.76662 20.0287 8.45208 20.0284C8.26442 20.0283 8.07677 20.0285 7.88911 20.0296C7.71256 20.0305 7.53605 20.0304 7.3595 20.0294C7.2949 20.0292 7.23029 20.0294 7.16568 20.03C6.81005 20.0333 6.52042 20.0284 6.24998 19.7656C6.0709 19.556 6.06536 19.3519 6.07374 19.0802C6.11205 18.8217 6.23079 18.6701 6.43225 18.512C6.66455 18.3828 6.94287 18.4184 7.20076 18.4222C7.25904 18.4225 7.31733 18.4228 7.37562 18.4229C7.52827 18.4235 7.6809 18.425 7.83355 18.4268C8.0171 18.4287 8.20066 18.4294 8.38422 18.4303C8.66241 18.4318 8.94054 18.4348 9.21873 18.4375C9.21873 18.025 9.21873 17.6125 9.21873 17.1875C9.04492 17.1883 8.8711 17.1891 8.69202 17.19C8.11577 17.1926 7.53951 17.1943 6.96326 17.1956C6.6141 17.1964 6.26495 17.1975 5.91579 17.1993C5.61116 17.2008 5.30652 17.2019 5.00188 17.2022C4.84086 17.2024 4.67985 17.2029 4.51883 17.204C3.18154 17.2132 2.0937 17.0117 1.09373 16.0547C0.630837 15.5898 0.288345 15.0097 0.117169 14.375C0.102733 14.3261 0.102733 14.3261 0.0880061 14.2762C-0.0356701 13.795 -0.0167772 13.3096 -0.0158019 12.8162C-0.0160249 12.7141 -0.0162971 12.612 -0.0166143 12.51C-0.0172825 12.2625 -0.0173192 12.0151 -0.0171138 11.7677C-0.0169552 11.5663 -0.0170131 11.3649 -0.0172211 11.1636C-0.0172503 11.1348 -0.0172798 11.106 -0.0173099 11.0764C-0.0173697 11.0179 -0.0174296 10.9594 -0.0174899 10.9009C-0.0180249 10.3537 -0.0178146 9.80656 -0.0173656 9.25938C-0.0169779 8.76025 -0.0174828 8.26112 -0.0184177 7.76199C-0.0193732 7.2479 -0.0197452 6.73381 -0.0194861 6.21972C-0.0193503 5.93174 -0.0194329 5.64375 -0.0201209 5.35577C-0.0207603 5.08477 -0.0205672 4.81378 -0.0198354 4.54279C-0.0196922 4.44381 -0.0198105 4.34483 -0.0202216 4.24585C-0.0249682 3.00766 0.258212 2.00758 1.13279 1.09375C1.88544 0.344269 2.85889 -0.0129983 3.9105 -0.0104509Z" fill="#313131"/>
<path d="M13.5063 4.73068C13.6956 4.84761 13.8292 4.98288 13.9061 5.19531C13.9286 5.38118 13.9259 5.56656 13.9238 5.75347C13.9238 5.81008 13.9238 5.8667 13.9239 5.92331C13.9239 6.0764 13.923 6.22947 13.9219 6.38255C13.9209 6.54276 13.9209 6.70296 13.9207 6.86317C13.9202 7.16628 13.9189 7.46937 13.9173 7.77248C13.9156 8.11766 13.9147 8.46285 13.9139 8.80803C13.9123 9.51786 13.9096 10.2277 13.9061 10.9375C13.9362 10.9363 13.9663 10.935 13.9973 10.9338C14.1354 10.9289 14.2734 10.9258 14.4115 10.9229C14.4588 10.9209 14.5062 10.9189 14.555 10.9169C14.8724 10.9117 15.0756 10.9534 15.3123 11.1719C15.4914 11.3815 15.497 11.5856 15.4886 11.8573C15.4586 12.0597 15.3835 12.2041 15.2342 12.3438C15.0044 12.5048 14.8303 12.5225 14.5536 12.5204C14.5131 12.5207 14.4726 12.521 14.4308 12.5213C14.2954 12.5221 14.16 12.5218 14.0245 12.5215C13.9273 12.5218 13.8301 12.5222 13.7328 12.5227C13.4963 12.5236 13.2598 12.5238 13.0233 12.5236C12.831 12.5235 12.6387 12.5236 12.4464 12.524C12.4053 12.524 12.4053 12.524 12.3634 12.5241C12.3077 12.5242 12.252 12.5243 12.1964 12.5244C11.6746 12.5252 11.1529 12.5251 10.6312 12.5246C10.1543 12.5242 9.67739 12.5251 9.20049 12.5265C8.71038 12.5281 8.22027 12.5287 7.73016 12.5284C7.45517 12.5283 7.18019 12.5285 6.9052 12.5296C6.64658 12.5306 6.38798 12.5304 6.12936 12.5294C6.03451 12.5292 5.93967 12.5294 5.84483 12.53C5.71519 12.5309 5.58564 12.5302 5.456 12.5292C5.41861 12.5298 5.38121 12.5304 5.34268 12.531C5.0691 12.5266 4.89477 12.4433 4.68733 12.2656C4.50824 12.056 4.50271 11.8519 4.51109 11.5802C4.54954 11.3208 4.66844 11.1678 4.87302 11.0117C5.09164 10.8891 5.34041 10.9211 5.58333 10.9277C5.6324 10.9284 5.68147 10.9291 5.73202 10.9299C5.85257 10.9317 5.97306 10.9343 6.09358 10.9375C6.09306 10.9055 6.09254 10.8735 6.092 10.8405C6.08729 10.5377 6.08373 10.2349 6.08144 9.932C6.08022 9.77632 6.07857 9.62068 6.0759 9.46502C6.07334 9.31457 6.07195 9.16415 6.07134 9.01368C6.07091 8.95651 6.07007 8.89934 6.0688 8.84218C6.06139 8.49546 6.07914 8.23138 6.32795 7.96875C6.53761 7.78967 6.74168 7.78413 7.01338 7.79251C7.27187 7.83082 7.42346 7.94956 7.58156 8.15102C7.71073 8.38332 7.67514 8.66164 7.67134 8.91953C7.67105 8.97781 7.67082 9.0361 7.67067 9.09439C7.67007 9.24704 7.66854 9.39967 7.66681 9.55232C7.66492 9.73587 7.66421 9.91943 7.6633 10.103C7.66179 10.3812 7.65879 10.6593 7.65608 10.9375C8.1717 10.9375 8.68733 10.9375 9.21858 10.9375C9.21735 10.8127 9.21612 10.688 9.21486 10.5594C9.21097 10.1465 9.20839 9.73369 9.20644 9.32083C9.20521 9.07057 9.20356 8.82033 9.2009 8.57009C9.19835 8.32846 9.19695 8.08685 9.19634 7.84521C9.19591 7.75315 9.19507 7.6611 9.1938 7.56905C9.19209 7.43981 9.19186 7.31065 9.19197 7.18141C9.19113 7.14359 9.19029 7.10577 9.18942 7.0668C9.19192 6.79034 9.27282 6.61557 9.45295 6.40625C9.66261 6.22717 9.86668 6.22163 10.1384 6.23001C10.3408 6.26 10.4852 6.33508 10.6248 6.48438C10.7884 6.71627 10.8029 6.89296 10.7988 7.17254C10.7988 7.21334 10.7989 7.25415 10.7989 7.29619C10.7988 7.43042 10.7976 7.56461 10.7963 7.69882C10.796 7.79214 10.7958 7.88546 10.7957 7.97878C10.7951 8.2239 10.7935 8.46901 10.7918 8.71413C10.7902 8.96446 10.7895 9.21478 10.7887 9.4651C10.787 9.95591 10.7843 10.4467 10.7811 10.9375C11.2967 10.9375 11.8123 10.9375 12.3436 10.9375C12.3424 10.7654 12.3411 10.5933 12.3399 10.416C12.336 9.8472 12.3334 9.27843 12.3314 8.70965C12.3302 8.36481 12.3286 8.01999 12.3259 7.67516C12.3236 7.37452 12.322 7.07388 12.3215 6.77323C12.3212 6.61411 12.3205 6.45502 12.3188 6.29591C12.3172 6.14595 12.3167 5.99603 12.3171 5.84606C12.317 5.79121 12.3165 5.73636 12.3156 5.68153C12.3103 5.33893 12.3397 5.10121 12.578 4.84375C12.8308 4.62778 13.1997 4.60812 13.5063 4.73068Z" fill="#313131"/>
</g>
<defs>
<clipPath id="clip0_142_6736">
<rect width="20" height="20" fill="white"/>
</clipPath>
</defs>
</svg>
