<svg width="20" height="20" viewBox="0 0 20 20" fill="none" xmlns="http://www.w3.org/2000/svg">
<path d="M1.36197 4.76038C1.40239 4.7602 1.44282 4.76003 1.48446 4.75985C1.52922 4.75986 1.57397 4.75986 1.62008 4.75987C1.66736 4.75973 1.71464 4.75958 1.76335 4.75944C1.89499 4.75908 2.02664 4.7589 2.15829 4.7588C2.30011 4.75864 2.44193 4.75827 2.58375 4.75793C2.92647 4.75716 3.26918 4.75676 3.61189 4.75642C3.7732 4.75624 3.93451 4.75604 4.09582 4.75583C4.6319 4.75517 5.16798 4.7546 5.70406 4.75432C5.84323 4.75424 5.9824 4.75417 6.12156 4.75409C6.15616 4.75407 6.19075 4.75405 6.22638 4.75403C6.78687 4.75371 7.34734 4.75272 7.90782 4.75145C8.48299 4.75016 9.05815 4.74946 9.63331 4.74933C9.95635 4.74925 10.2794 4.7489 10.6024 4.74791C10.8775 4.74706 11.1526 4.74674 11.4277 4.74712C11.5681 4.7473 11.7084 4.74723 11.8488 4.74647C12.001 4.74566 12.1531 4.74605 12.3053 4.74657C12.3719 4.74593 12.3719 4.74593 12.4398 4.74527C12.6809 4.74725 12.8249 4.75958 13.0078 4.92187C13.1954 5.1247 13.208 5.26768 13.2075 5.53859C13.2075 5.5649 13.2075 5.59122 13.2075 5.61833C13.2075 5.70498 13.2072 5.79164 13.2069 5.87829C13.2068 5.9385 13.2068 5.9987 13.2067 6.05891C13.2066 6.21714 13.2062 6.37537 13.2058 6.53361C13.2054 6.69516 13.2052 6.85672 13.205 7.01828C13.2046 7.3351 13.2039 7.65192 13.2031 7.96875C13.2324 7.9684 13.2617 7.96805 13.292 7.96769C13.569 7.96456 13.846 7.96218 14.123 7.96065C14.2654 7.95984 14.4078 7.95873 14.5502 7.95696C14.6877 7.95526 14.8252 7.95433 14.9627 7.95392C15.0405 7.95349 15.1183 7.95228 15.196 7.95104C15.6321 7.95094 15.6321 7.95094 15.8203 8.125C15.8444 8.14614 15.8685 8.16729 15.8934 8.18908C16.0291 8.32852 16.159 8.47142 16.2861 8.61877C16.3877 8.73432 16.492 8.84714 16.5966 8.95996C16.7655 9.14215 16.9327 9.32566 17.0985 9.51065C17.1991 9.62229 17.3006 9.73308 17.4023 9.84375C17.5925 10.0508 17.7809 10.2594 17.9687 10.4687C18.0273 10.5339 18.0859 10.599 18.1445 10.6641C18.1732 10.6961 18.2019 10.7281 18.2315 10.7611C18.2926 10.8287 18.3542 10.8958 18.4164 10.9625C18.4631 11.013 18.4631 11.013 18.5107 11.0644C18.5528 11.1095 18.5528 11.1095 18.5958 11.1554C18.7768 11.3807 18.8063 11.5648 18.8048 11.8437C18.8052 11.8968 18.8052 11.8968 18.8056 11.951C18.8063 12.0676 18.8062 12.1842 18.8059 12.3009C18.8061 12.3822 18.8063 12.4635 18.8066 12.5449C18.8069 12.7152 18.8068 12.8855 18.8064 13.0558C18.806 13.2738 18.8068 13.4917 18.8079 13.7097C18.8086 13.8776 18.8086 14.0455 18.8084 14.2134C18.8084 14.2938 18.8086 14.3741 18.8091 14.4545C18.8097 14.567 18.8093 14.6794 18.8086 14.7919C18.809 14.8248 18.8094 14.8578 18.8098 14.8918C18.807 15.1156 18.7614 15.2454 18.6328 15.4297C18.3811 15.6485 18.0715 15.6035 17.7563 15.5957C17.7011 15.5949 17.6459 15.5942 17.5907 15.5936C17.4562 15.5919 17.3218 15.5892 17.1874 15.5859C17.1831 15.6113 17.1787 15.6367 17.1741 15.6629C17.0821 16.162 16.8641 16.5598 16.455 16.8628C15.9963 17.1707 15.481 17.265 14.9392 17.1608C14.6645 17.0829 14.4445 16.9702 14.2187 16.7969C14.1679 16.763 14.1679 16.763 14.1162 16.7285C13.784 16.4139 13.6183 16.0316 13.5546 15.5859C11.5824 15.5859 9.61011 15.5859 7.57807 15.5859C7.56518 15.6891 7.55229 15.7922 7.53901 15.8984C7.34734 16.4001 7.05654 16.8003 6.56245 17.0312C6.07376 17.2355 5.58009 17.258 5.07823 17.0831C4.88804 16.999 4.72994 16.8901 4.57026 16.7578C4.54544 16.7383 4.52061 16.7187 4.49504 16.6986C4.2295 16.4654 4.02626 16.0791 3.98677 15.7275C3.98596 15.6808 3.98515 15.6341 3.98432 15.5859C3.9593 15.5877 3.93427 15.5896 3.90849 15.5914C3.66017 15.6018 3.52165 15.5776 3.32026 15.4297C3.16347 15.2572 3.15023 15.0884 3.15318 14.8634C3.16938 14.7172 3.22248 14.6393 3.32026 14.5312C3.55512 14.3502 3.7237 14.3299 4.01362 14.3335C4.04086 14.3337 4.0681 14.3338 4.09617 14.334C4.16306 14.3345 4.22994 14.3352 4.29682 14.3359C4.3072 14.3129 4.31757 14.2899 4.32826 14.2662C4.51101 13.9276 4.87301 13.7278 5.22746 13.6163C5.72935 13.483 6.21812 13.5345 6.68009 13.7712C6.95852 13.9372 6.95852 13.9372 7.04578 14.0596C7.13795 14.187 7.21093 14.2809 7.36528 14.326C7.48678 14.3369 7.60494 14.3381 7.72691 14.3359C7.77341 14.3364 7.81991 14.3368 7.86781 14.3372C8.0178 14.3382 8.16768 14.3371 8.31767 14.3359C8.41047 14.3363 8.50327 14.3367 8.59607 14.3373C8.93952 14.3385 9.28297 14.3371 9.62641 14.3359C10.3942 14.3359 11.162 14.3359 11.9531 14.3359C11.9531 11.5773 11.9531 8.81875 11.9531 5.97656C10.7891 5.9786 10.7891 5.9786 9.60154 5.98068C9.1111 5.98128 8.62066 5.98185 8.13021 5.98228C7.87266 5.98251 7.61511 5.98275 7.35756 5.983C7.30913 5.98304 7.30913 5.98304 7.25974 5.98309C6.73834 5.9836 6.21695 5.98452 5.69555 5.9856C5.16061 5.98669 4.62566 5.98735 4.09071 5.98758C3.76052 5.98775 3.43034 5.98825 3.10015 5.9892C2.87384 5.98982 2.64753 5.99001 2.42122 5.98986C2.29058 5.98978 2.15995 5.98996 2.02931 5.99053C1.88774 5.99111 1.74618 5.99097 1.60461 5.99065C1.56323 5.99099 1.52185 5.99133 1.47921 5.99169C1.20401 5.98999 1.07141 5.94995 0.869089 5.75683C0.753316 5.60918 0.731508 5.45798 0.742136 5.27343C0.80741 5.04305 0.906068 4.94042 1.0937 4.80468C1.19027 4.7564 1.25392 4.76059 1.36197 4.76038ZM13.2031 9.17968C13.2031 10.8812 13.2031 12.5828 13.2031 14.3359C13.4222 14.3359 13.6414 14.3359 13.8671 14.3359C13.9316 14.2715 13.996 14.207 14.0624 14.1406C14.0624 14.1148 14.0624 14.0891 14.0624 14.0625C14.0964 14.0466 14.0964 14.0466 14.131 14.0305C14.2189 13.9843 14.2928 13.9311 14.3725 13.8721C14.8014 13.5866 15.3006 13.522 15.8016 13.6209C16.1995 13.7313 16.5312 13.9282 16.7808 14.263C16.9208 14.3714 17.045 14.3531 17.2167 14.3457C17.2477 14.345 17.2787 14.3443 17.3106 14.3436C17.3867 14.3417 17.4629 14.3389 17.539 14.3359C17.5499 14.0239 17.5582 13.7119 17.5633 13.3996C17.5657 13.2546 17.569 13.1097 17.5744 12.9647C17.6333 12.2495 17.6333 12.2495 17.3779 11.6169C17.2815 11.5229 17.1795 11.4462 17.0703 11.3672C17.0093 11.3027 16.9495 11.237 16.892 11.1694C16.7636 11.0261 16.6341 10.8839 16.5039 10.7422C16.285 10.5039 16.0686 10.2634 15.8526 10.0226C15.6873 9.83847 15.5211 9.65514 15.354 9.47265C15.3355 9.45247 15.317 9.43228 15.298 9.41148C15.2259 9.33288 15.1535 9.25512 15.0781 9.17968C14.4593 9.17968 13.8406 9.17968 13.2031 9.17968ZM5.28071 15.0415C5.1858 15.1964 5.18319 15.3298 5.19526 15.5078C5.27293 15.7163 5.38693 15.838 5.58589 15.9375C5.78044 15.9588 5.93338 15.9587 6.11079 15.8716C6.25502 15.7414 6.31353 15.642 6.36225 15.4541C6.36825 15.2803 6.3364 15.1896 6.24995 15.0391C6.10669 14.8912 5.97879 14.7992 5.77143 14.7925C5.55233 14.7949 5.42477 14.8776 5.28071 15.0415ZM14.8681 15.0659C14.786 15.2333 14.7724 15.3638 14.8046 15.5469C14.8969 15.735 15.0071 15.8452 15.1953 15.9375C15.3783 15.9697 15.5089 15.9561 15.6762 15.874C15.8139 15.7523 15.9195 15.6489 15.9524 15.4619C15.963 15.2507 15.9246 15.1233 15.7812 14.9609C15.6189 14.8175 15.4914 14.7791 15.2803 14.7897C15.0932 14.8226 14.9898 14.9282 14.8681 15.0659Z" fill="#313131"/>
<path d="M2.55644 7.1277C2.63154 7.12747 2.63154 7.12747 2.70815 7.12724C2.81365 7.12702 2.91912 7.12735 3.02461 7.12808C3.1592 7.12897 3.29374 7.12846 3.42833 7.12752C3.55763 7.12682 3.68691 7.12731 3.81621 7.1277C3.86423 7.12738 3.91225 7.12707 3.96173 7.12674C4.22495 7.12961 4.39725 7.14382 4.60951 7.3047C4.74538 7.45844 4.79717 7.59918 4.81108 7.80046C4.80015 7.95802 4.74353 8.07823 4.64858 8.20314C4.45987 8.35334 4.31729 8.40313 4.07945 8.40474C4.01256 8.40531 4.01256 8.40531 3.94432 8.40588C3.8961 8.40605 3.84788 8.40621 3.7982 8.40638C3.74864 8.40661 3.69907 8.40683 3.648 8.40706C3.54302 8.40743 3.43805 8.4077 3.33307 8.40783C3.19896 8.40805 3.06487 8.40899 2.93077 8.4101C2.80244 8.411 2.6741 8.41108 2.54576 8.41127C2.49778 8.41175 2.4498 8.41223 2.40037 8.41273C2.13815 8.41204 1.93408 8.40921 1.73278 8.2213C1.56172 7.9976 1.53372 7.85767 1.56264 7.57814C1.61441 7.40303 1.69569 7.31983 1.84843 7.22024C2.07556 7.11284 2.30975 7.12607 2.55644 7.1277Z" fill="#313131"/>
<path d="M3.14362 9.55095C3.17831 9.55089 3.21301 9.55083 3.24876 9.55078C3.32171 9.55084 3.39466 9.55129 3.4676 9.5521C3.57905 9.55324 3.69043 9.55291 3.80188 9.5524C3.87299 9.55264 3.94409 9.55297 4.0152 9.55339C4.04836 9.55327 4.08153 9.55316 4.1157 9.55304C4.36703 9.55704 4.49329 9.61399 4.67773 9.79005C4.79351 9.9377 4.81532 10.0889 4.80469 10.2735C4.73941 10.5038 4.64076 10.6065 4.45312 10.7422C4.32091 10.8083 4.17078 10.7893 4.02527 10.7906C3.99039 10.7909 3.9555 10.7912 3.91957 10.7915C3.84562 10.7921 3.77167 10.7925 3.69772 10.7928C3.58497 10.7935 3.47227 10.7952 3.35953 10.7969C3.28766 10.7973 3.21579 10.7976 3.14392 10.7979C3.11034 10.7986 3.07677 10.7993 3.04217 10.8C2.82875 10.7992 2.70854 10.7667 2.53906 10.625C2.40951 10.4815 2.35061 10.3825 2.33154 10.188C2.34617 10.0096 2.38513 9.86621 2.5 9.72658C2.71938 9.57419 2.87983 9.54744 3.14362 9.55095Z" fill="#313131"/>
<path d="M3.96745 11.936C4.01576 11.9356 4.01576 11.9356 4.06503 11.9352C4.26201 11.9372 4.40005 11.962 4.57048 12.0703C4.70347 12.2107 4.80291 12.3446 4.80623 12.5432C4.7921 12.7489 4.75161 12.8902 4.60954 13.0469C4.42335 13.2046 4.21865 13.2177 3.9821 13.2202C3.94269 13.2208 3.94269 13.2208 3.90249 13.2214C3.68461 13.2176 3.49712 13.1727 3.33055 13.026C3.1642 12.8017 3.13509 12.6604 3.16423 12.3828C3.22396 12.1917 3.33802 12.0801 3.51302 11.9848C3.66194 11.9265 3.80953 11.9322 3.96745 11.936Z" fill="#313131"/>
</svg>
