<svg width="20" height="20" viewBox="0 0 20 20" fill="none" xmlns="http://www.w3.org/2000/svg">
<g clip-path="url(#clip0_142_6808)">
<path d="M1.7082 0H7.85156C8.27578 0.0265625 8.69453 0.189844 9.00156 0.488281C9.30156 0.769531 9.48906 1.15977 9.53867 1.5668C9.62578 2.22852 9.70547 2.89102 9.78789 3.55352C12.4629 3.55625 15.1383 3.55391 17.8133 3.55469C18.1383 3.55469 18.4727 3.53984 18.7852 3.64609C19.3098 3.81328 19.741 4.24453 19.9086 4.76914C19.9625 4.92852 19.9828 5.09609 20 5.2625V18.2629C19.9848 18.7527 19.7723 19.2367 19.3984 19.5582C19.0891 19.8371 18.6777 19.9836 18.2641 20H8.65664C8.10156 19.9816 7.56055 19.6984 7.24805 19.2359C7.06602 18.9793 6.9707 18.6719 6.93477 18.3613C6.85625 17.723 6.77656 17.0848 6.69844 16.4461C5.18203 16.4441 3.66563 16.4457 2.14922 16.4453C1.83711 16.4465 1.51641 16.4555 1.2168 16.3547C0.691016 16.1875 0.258594 15.7555 0.0910156 15.2297C0.0339844 15.0621 0.0148437 14.8852 0 14.7094V1.71406C0.0222656 1.30781 0.167578 0.905078 0.442187 0.601172C0.757422 0.234766 1.22852 0.0242187 1.7082 0ZM1.4832 1.24219C1.28164 1.34648 1.16094 1.57266 1.17227 1.79727C1.17188 6.08164 1.17188 10.366 1.17227 14.6504C1.14883 14.9742 1.42852 15.2789 1.75547 15.2715C4.52617 15.2758 7.29727 15.2723 10.068 15.2734C9.50547 10.7535 8.94219 6.2332 8.37891 1.71328C8.35859 1.46563 8.16523 1.25234 7.92813 1.18867C7.78633 1.16172 7.64062 1.17383 7.49727 1.17188C5.66172 1.17188 3.82617 1.17227 1.99062 1.17148C1.82031 1.17344 1.6375 1.15508 1.4832 1.24219ZM9.93555 4.72656C10.3926 8.39883 10.8504 12.0707 11.3078 15.7426C11.3383 15.9223 11.291 16.1125 11.1684 16.2488C10.4273 17.1098 9.68281 17.968 8.94102 18.8277C12.041 18.8273 15.1414 18.8301 18.2418 18.8266C18.5703 18.8352 18.852 18.5289 18.8277 18.2031C18.8281 13.9187 18.8281 9.63398 18.8277 5.34922C18.8508 5.025 18.5703 4.72031 18.2434 4.72813C15.4742 4.72422 12.7047 4.72773 9.93555 4.72656ZM7.87969 16.4453C7.94258 16.9688 8.01016 17.4914 8.0707 18.0148C8.15312 17.9617 8.20977 17.8805 8.27305 17.8078C8.66562 17.3535 9.0582 16.9 9.45039 16.4453C8.92656 16.4453 8.40312 16.4453 7.87969 16.4453Z" fill="#313131"/>
<path d="M4.66783 4.14963C4.97369 4.12893 5.28072 4.14611 5.58736 4.14065C5.80142 4.1426 6.03892 4.11604 6.22447 4.2469C6.38267 4.34807 6.4608 4.5301 6.49322 4.70822C6.87486 6.62776 7.26236 8.54651 7.64283 10.4664C7.71314 10.7727 7.49478 11.1047 7.1854 11.159C6.87994 11.2278 6.5522 11.0086 6.49673 10.7012C6.36861 10.0778 6.24595 9.45315 6.12134 8.82893C5.58189 8.82736 5.04283 8.82776 4.50337 8.82893C4.38853 9.41252 4.26939 9.99572 4.15455 10.5797C4.12681 10.7582 4.06041 10.9442 3.90611 11.0524C3.69166 11.2203 3.36119 11.2055 3.16236 11.0196C2.99791 10.8738 2.9358 10.6367 2.98853 10.4258C3.37486 8.49963 3.75767 6.57268 4.14595 4.6469C4.19009 4.39104 4.40376 4.17072 4.66783 4.14963ZM5.2065 5.31291C5.0522 6.09455 4.894 6.87502 4.73892 7.65627C5.12134 7.65627 5.50337 7.65627 5.8858 7.65627C5.73072 6.87502 5.57251 6.09455 5.41822 5.31291C5.34751 5.31291 5.2772 5.31291 5.2065 5.31291Z" fill="#313131"/>
<path d="M14.2555 7.84963C14.4773 7.58908 14.925 7.59885 15.1355 7.86799C15.3586 8.13752 15.2457 8.50978 15.2734 8.82814C15.8609 8.82971 16.4484 8.82541 17.0359 8.8301C17.3172 8.82658 17.5762 9.05431 17.6098 9.33322C17.648 9.57892 17.5082 9.83596 17.284 9.94064C17.1617 10.0031 17.0215 9.99924 16.8883 10.0028C16.6039 10.9418 16.1176 11.8102 15.5 12.5699C15.8828 12.8961 16.2656 13.2223 16.6656 13.5281C16.8324 13.6469 17.0008 13.8016 17.0234 14.018C17.0844 14.3574 16.7875 14.6973 16.4438 14.6856C16.1844 14.6938 16.0008 14.4899 15.8098 14.3465C15.4234 14.0516 15.059 13.7297 14.6875 13.416C14.2199 13.8164 13.7508 14.2164 13.257 14.5848C13.0742 14.7133 12.8164 14.7188 12.627 14.6012C12.402 14.4707 12.2914 14.1801 12.3703 13.9328C12.418 13.7531 12.5684 13.634 12.7102 13.5278C13.1102 13.2227 13.4926 12.8961 13.8754 12.5699C13.2574 11.8106 12.7711 10.9418 12.4867 10.0028C12.298 10.0082 12.0918 9.98517 11.9508 9.84572C11.7223 9.64807 11.6953 9.26877 11.8945 9.04103C12.0113 8.8965 12.1984 8.82189 12.3824 8.82853C12.9555 8.82736 13.5285 8.82853 14.1016 8.82814C14.1293 8.50314 14.0117 8.11642 14.2555 7.84963ZM13.7234 9.9965C13.9574 10.6117 14.2805 11.191 14.6875 11.7086C15.0945 11.1914 15.4176 10.6117 15.6516 9.9965C15.0086 9.9965 14.366 9.9965 13.7234 9.9965Z" fill="#313131"/>
</g>
<defs>
<clipPath id="clip0_142_6808">
<rect width="20" height="20" fill="white"/>
</clipPath>
</defs>
</svg>
