<svg width="20" height="20" viewBox="0 0 20 20" fill="none" xmlns="http://www.w3.org/2000/svg">
<g clip-path="url(#clip0_142_6798)">
<path d="M3.92581 0H16.036C16.6254 0.040625 17.2051 0.246875 17.6723 0.610938C18.268 1.06719 18.6801 1.75703 18.791 2.5C18.8356 2.77109 18.825 3.04688 18.8262 3.32031C18.8262 4.75273 18.8258 6.18516 18.8266 7.61758C18.8348 7.82031 18.7465 8.0293 18.575 8.14453C18.4575 8.23203 18.3071 8.25352 18.1645 8.25352C16.809 8.25156 15.4535 8.25313 14.0981 8.25273C14.0973 8.66289 14.0977 9.07305 14.0977 9.4832C15.3539 9.6168 16.5504 10.2223 17.4035 11.1535C18.3321 12.1504 18.8469 13.5184 18.7996 14.8805C18.7688 16.1398 18.2602 17.3773 17.4035 18.2996C16.8864 18.8602 16.2477 19.3078 15.543 19.5992C14.9809 19.8371 14.3758 19.9582 13.7688 20H13.302C12.193 19.9441 11.1055 19.5402 10.2387 18.8441C9.90433 19.1707 9.5762 19.5035 9.24066 19.8285C9.02933 20.0352 8.66136 20.0402 8.4473 19.8359C8.17894 19.5812 7.92191 19.3145 7.65667 19.0566C7.42777 19.284 7.19691 19.5102 6.96995 19.7395C6.87542 19.8332 6.77308 19.9289 6.64027 19.9633C6.4348 20.0277 6.20198 19.9621 6.05198 19.8098C5.8012 19.5637 5.55433 19.3141 5.30355 19.068C5.05081 19.3176 4.80316 19.5727 4.54886 19.8203C4.34027 20.0324 3.96995 20.0441 3.75198 19.8402C3.47308 19.575 3.20784 19.2953 2.93284 19.0262C2.71019 19.2594 2.48558 19.4906 2.26448 19.7254C2.16605 19.8293 2.05628 19.9359 1.91175 19.9691C1.65198 20.0418 1.35355 19.9074 1.23519 19.6648C1.14847 19.4898 1.17855 19.2887 1.17347 19.1004C1.17464 13.7098 1.17308 8.31914 1.17425 2.92812C1.16956 2.1332 1.51097 1.3457 2.09105 0.802734C2.58402 0.329687 3.24652 0.0503906 3.92581 0ZM3.0262 1.54258C2.60198 1.86836 2.343 2.39492 2.34652 2.93008C2.34495 7.93438 2.34613 12.9391 2.34573 17.9434C2.4512 17.8355 2.54964 17.7105 2.69261 17.6512C2.90198 17.559 3.16331 17.6027 3.32698 17.7645C3.60003 18.032 3.86761 18.3055 4.13948 18.575C4.39105 18.325 4.63987 18.0723 4.89222 17.823C5.10433 17.6066 5.48362 17.602 5.7012 17.8133C5.96136 18.0656 6.21605 18.3238 6.47464 18.5785C6.72855 18.327 6.98206 18.0742 7.23636 17.823C7.44769 17.598 7.83636 17.5883 8.05706 17.8051C8.32073 18.0602 8.57816 18.3215 8.83987 18.5785C9.03011 18.3906 9.21995 18.2031 9.4098 18.0148C8.63206 17.0512 8.20784 15.8074 8.26136 14.5684C8.30628 13.2172 8.88636 11.8918 9.85198 10.9449C10.6727 10.1285 11.7766 9.61406 12.9258 9.4875C12.9258 7.35391 12.9262 5.21992 12.9254 3.08633C12.9008 2.40391 13.1102 1.7168 13.5231 1.17188C10.3957 1.17188 7.268 1.17188 4.14066 1.17188C3.74183 1.16719 3.34027 1.29453 3.0262 1.54258ZM14.6614 1.6543C14.3 1.98789 14.0926 2.47617 14.0981 2.96719C14.0973 4.33828 14.0977 5.70937 14.0977 7.08047C15.2832 7.08086 16.4688 7.08047 17.6543 7.08086C17.6539 5.70977 17.6551 4.33867 17.6539 2.96758C17.6559 2.58086 17.5321 2.19375 17.2977 1.88516C16.9977 1.48125 16.5196 1.21484 16.0172 1.17891C15.525 1.13711 15.0188 1.31328 14.6614 1.6543ZM13.0317 10.6559C12.3946 10.732 11.7778 10.9637 11.2461 11.3219C10.45 11.8551 9.84925 12.6738 9.58714 13.5961C9.31761 14.5305 9.39417 15.5605 9.8055 16.4422C10.2305 17.3684 11.0141 18.123 11.9559 18.5129C12.8274 18.8793 13.8274 18.9266 14.7301 18.6477C15.8465 18.3109 16.7953 17.4707 17.2703 16.4066C17.6731 15.5191 17.7407 14.4863 17.4594 13.5535C17.1762 12.5965 16.5278 11.7559 15.6778 11.2344C14.8957 10.7469 13.9453 10.5426 13.0317 10.6559Z" fill="#313131"/>
<path d="M7.19634 2.54724C7.39477 2.3367 7.75024 2.31482 7.97368 2.49842C8.1311 2.61678 8.19946 2.81482 8.20376 3.00623C8.47407 3.09646 8.7522 3.22146 8.93462 3.4492C9.12681 3.69881 9.06313 4.09842 8.79946 4.27264C8.59243 4.42185 8.29126 4.4117 8.09517 4.24803C7.92876 4.11131 7.69556 4.0781 7.48931 4.12576C7.32759 4.15974 7.19556 4.32576 7.22837 4.49295C7.28618 4.65076 7.4561 4.71873 7.59595 4.78592C8.01274 4.96209 8.45884 5.10701 8.79946 5.41795C9.16782 5.7367 9.38462 6.22967 9.33891 6.71834C9.29243 7.37342 8.81665 7.95623 8.20142 8.17029C8.20142 8.33123 8.18657 8.50193 8.08345 8.63357C7.92016 8.86639 7.57759 8.94607 7.3311 8.80076C7.11587 8.69139 7.01313 8.44568 7.02016 8.21287C6.72016 8.1406 6.42329 8.03396 6.16782 7.85779C5.95063 7.7031 5.86977 7.39217 5.98071 7.14998C6.07681 6.92576 6.32563 6.78045 6.56821 6.80623C6.74985 6.81639 6.89087 6.94607 7.05649 7.00584C7.26313 7.08123 7.48813 7.11873 7.70727 7.08748C7.95923 7.05389 8.18618 6.82146 8.17173 6.56014C8.15102 6.35662 7.96157 6.23357 7.79712 6.14568C7.43032 5.96209 7.02251 5.85935 6.68735 5.6156C6.29634 5.35115 6.0354 4.89099 6.05141 4.41443C6.05688 3.81482 6.46352 3.25584 7.02134 3.04451C7.01977 2.86521 7.06079 2.67459 7.19634 2.54724Z" fill="#313131"/>
<path d="M4.06857 10.0086C5.06975 9.9953 6.07209 10.0051 7.07404 10.0039C7.38459 9.99882 7.66076 10.2766 7.65607 10.5867C7.66311 10.8992 7.38498 11.1805 7.0717 11.1734C6.09436 11.175 5.11662 11.175 4.13928 11.1734C3.85607 11.1781 3.59631 10.95 3.56115 10.6699C3.5092 10.3582 3.75529 10.0402 4.06857 10.0086Z" fill="#313131"/>
<path d="M4.07228 12.3558C5.05822 12.3453 6.04493 12.3551 7.03126 12.3512C7.2629 12.3383 7.49689 12.4687 7.59572 12.6808C7.70665 12.8965 7.65782 13.1765 7.48673 13.3469C7.36993 13.4691 7.19923 13.5265 7.03243 13.5234C6.06915 13.5226 5.10548 13.525 4.1422 13.5223C3.85548 13.5265 3.58986 13.2961 3.55822 13.0105C3.51017 12.6992 3.75861 12.3832 4.07228 12.3558Z" fill="#313131"/>
<path d="M13.4154 12.6039C13.5916 12.4914 13.8283 12.4847 14.0095 12.5894C14.2013 12.6922 14.3173 12.9093 14.3111 13.1254C14.3107 13.7109 14.3127 14.2965 14.3103 14.8816C14.3107 15.1043 14.1759 15.3215 13.9716 15.4125C13.8306 15.482 13.6685 15.4683 13.5162 15.4695C12.9939 15.4668 12.4713 15.4715 11.949 15.4675C11.7412 15.4672 11.5384 15.3465 11.4408 15.1629C11.3334 14.9754 11.3466 14.7297 11.4705 14.5531C11.5767 14.3961 11.7627 14.2968 11.9525 14.298C12.3482 14.2945 12.7439 14.298 13.1392 14.2968C13.14 13.9058 13.1384 13.5144 13.1396 13.1234C13.1322 12.9172 13.2396 12.7125 13.4154 12.6039Z" fill="#313131"/>
<path d="M4.03265 14.7012C4.14515 14.6848 4.25921 14.6898 4.37249 14.6898C5.27249 14.6918 6.17249 14.6879 7.07249 14.6914C7.32327 14.6894 7.56038 14.866 7.62991 15.107C7.71741 15.3703 7.57952 15.6816 7.32952 15.8C7.19085 15.8742 7.02913 15.8621 6.87679 15.8629C5.96468 15.8605 5.05257 15.8637 4.14046 15.8613C3.85491 15.868 3.59163 15.6383 3.55686 15.3555C3.50843 15.0562 3.73382 14.7488 4.03265 14.7012Z" fill="#313131"/>
</g>
<defs>
<clipPath id="clip0_142_6798">
<rect width="20" height="20" fill="white"/>
</clipPath>
</defs>
</svg>
