<svg width="20" height="20" viewBox="0 0 20 20" fill="none" xmlns="http://www.w3.org/2000/svg">
<g clip-path="url(#clip0_142_6831)">
<path d="M9.41289 1.06092C9.95625 0.905057 10.5617 0.974588 11.0531 1.25545C11.5531 1.53592 11.9328 2.02342 12.0766 2.57889C12.2219 3.11092 12.1391 3.69256 11.8766 4.17459C13.2625 5.56248 14.6512 6.94803 16.0367 8.3367C16.0984 8.3906 16.1508 8.48514 16.2461 8.46873C17.4973 8.46678 18.7488 8.46834 20 8.46795V19.0222C13.3332 19.0222 6.6668 19.0222 0 19.0222V8.46795C1.27422 8.4656 2.54883 8.47303 3.82266 8.46443C4.15352 8.16131 4.46055 7.83006 4.78242 7.51639C5.89609 6.40232 7.01016 5.28904 8.12344 4.17459C7.82734 3.63435 7.76484 2.96717 7.9832 2.38787C8.21328 1.75232 8.76094 1.24178 9.41289 1.06092ZM9.7875 2.17537C9.47852 2.2449 9.20859 2.47185 9.09375 2.76834C8.96992 3.07537 9.01758 3.44412 9.21797 3.70818C9.44453 4.01912 9.86484 4.17029 10.2375 4.07224C10.7172 3.96092 11.0555 3.44959 10.9605 2.96443C10.8855 2.43084 10.3109 2.04373 9.7875 2.17537ZM8.95312 5.00271C7.79805 6.1574 6.64219 7.31131 5.48906 8.46795C8.49609 8.46795 11.5035 8.46795 14.5105 8.46795C13.3582 7.31053 12.2016 6.15818 11.0477 5.00271C10.4086 5.36092 9.5918 5.3617 8.95312 5.00271ZM1.17227 9.64021C1.17148 12.3769 1.17188 15.1137 1.17227 17.8504C7.05742 17.8504 12.9426 17.8504 18.8281 17.8504C18.8281 15.1137 18.8285 12.3769 18.8277 9.64021C12.9426 9.63982 7.05742 9.63982 1.17227 9.64021Z" fill="#313131"/>
<path d="M5.22096 11.9875C8.4069 11.9871 11.5928 11.9871 14.7784 11.9875C14.7792 12.3781 14.7796 12.7687 14.7784 13.1594C11.5928 13.159 8.4069 13.1594 5.22135 13.1594C5.22057 12.7687 5.22057 12.3781 5.22096 11.9875Z" fill="#313131"/>
<path d="M5.22144 14.3324C8.40699 14.332 11.5929 14.332 14.7789 14.3324C14.7793 14.723 14.7796 15.1136 14.7785 15.5043C11.5929 15.5043 8.40699 15.5043 5.22144 15.5043C5.22027 15.1136 5.22066 14.723 5.22144 14.3324Z" fill="#313131"/>
</g>
<defs>
<clipPath id="clip0_142_6831">
<rect width="20" height="20" fill="white"/>
</clipPath>
</defs>
</svg>
