<svg width="20" height="20" viewBox="0 0 20 20" fill="none" xmlns="http://www.w3.org/2000/svg">
<path d="M2.71022 2.32813C2.89381 2.26212 3.10631 2.28829 3.26725 2.39923C3.58678 2.61094 3.90592 2.82383 4.22467 3.03712C4.54108 3.24493 4.77194 3.57774 4.85241 3.94805C5.42428 6.45938 5.99381 8.97149 6.56569 11.4828C6.66334 11.9438 7.1067 12.2981 7.57819 12.291C9.7403 12.2922 11.9028 12.2914 14.0653 12.2914C14.4231 12.2996 14.7782 12.1109 14.9665 11.8055C15.0598 11.6629 15.1024 11.4957 15.1364 11.3309C15.5653 9.44102 15.9954 7.55157 16.4243 5.66173C16.4946 5.36876 16.4333 5.04649 16.2532 4.80391C16.0587 4.53165 15.7266 4.36758 15.3919 4.37501C13.2688 4.37501 11.1454 4.37462 9.02194 4.3754C8.86139 4.38399 8.69694 4.3418 8.57155 4.23829C8.36842 4.08399 8.28209 3.79923 8.36373 3.55782C8.44342 3.29532 8.71178 3.11016 8.98561 3.12501C11.1337 3.1254 13.2821 3.12423 15.4305 3.1254C15.9872 3.12657 16.5391 3.3418 16.9497 3.71758C17.4372 4.15665 17.7239 4.81133 17.7032 5.46837C17.7005 5.75352 17.6208 6.02891 17.5602 6.30508C17.1434 8.13477 16.7305 9.96524 16.311 11.7941C16.1278 12.5731 15.5048 13.2274 14.7348 13.4465C14.354 13.568 13.9505 13.5383 13.5571 13.5418C11.5516 13.5406 9.54616 13.5438 7.54108 13.5399C6.71569 13.534 5.91959 13.0387 5.54616 12.3031C5.44733 12.1145 5.37975 11.9109 5.33366 11.7035C4.76998 9.22266 4.20553 6.7418 3.64225 4.26055C3.62975 4.19102 3.60163 4.11993 3.53795 4.08282C3.22663 3.87188 2.91256 3.66524 2.59967 3.45665C2.44108 3.35938 2.32389 3.19493 2.30045 3.0086C2.24772 2.72149 2.43366 2.41798 2.71022 2.32813Z" fill="#313131"/>
<path d="M12.4527 6.59259C12.5859 6.45509 12.7839 6.38869 12.9734 6.41408C13.2476 6.44103 13.4839 6.67579 13.5136 6.94962C13.5409 7.14259 13.4718 7.34415 13.3319 7.4797C12.3511 8.46134 11.3702 9.44337 10.3878 10.4235C10.164 10.6543 9.75773 10.6613 9.52687 10.4371C9.14015 10.0551 8.75812 9.66798 8.37179 9.28517C8.23117 9.16056 8.13859 8.97853 8.14757 8.7879C8.14562 8.51173 8.3546 8.25431 8.62296 8.19337C8.82492 8.14572 9.04914 8.2004 9.19914 8.34572C9.4507 8.59376 9.69953 8.84494 9.94953 9.09415C10.7851 8.26173 11.6183 7.42619 12.4527 6.59259Z" fill="#313131"/>
<path d="M8.17916 14.5914C8.63385 14.5477 9.10416 14.7004 9.44283 15.0074C9.7733 15.3012 9.97877 15.7305 9.99674 16.1723C10.0225 16.6563 9.82135 17.1449 9.46431 17.4723C9.10103 17.8141 8.57799 17.9734 8.0858 17.8969C7.60181 17.8281 7.15885 17.5297 6.90728 17.1109C6.63541 16.6684 6.59244 16.0957 6.79244 15.6164C7.01822 15.0531 7.57408 14.6406 8.17916 14.5914ZM8.25767 15.841C7.95494 15.8824 7.80767 16.2902 8.01392 16.5156C8.20103 16.7637 8.63697 16.6844 8.72525 16.3867C8.84088 16.1016 8.55611 15.7719 8.25767 15.841Z" fill="#313131"/>
<path d="M13.1781 14.5914C13.6344 14.5473 14.1059 14.7008 14.4449 15.0094C14.7734 15.3023 14.9781 15.7293 14.9965 16.1695C15.0234 16.6543 14.8223 17.1438 14.4652 17.4719C14.102 17.8137 13.5781 17.9738 13.0855 17.8969C12.602 17.8277 12.1598 17.5301 11.9082 17.1121C11.6574 16.7039 11.6 16.1855 11.75 15.7313C11.9453 15.1129 12.5313 14.6434 13.1781 14.5914ZM13.257 15.8414C12.9551 15.8832 12.8082 16.2898 13.0137 16.5152C13.1996 16.7625 13.6336 16.6855 13.7242 16.3902C13.843 16.1039 13.557 15.7711 13.257 15.8414Z" fill="#313131"/>
</svg>
