<svg width="20" height="20" viewBox="0 0 20 20" fill="none" xmlns="http://www.w3.org/2000/svg">
<g clip-path="url(#clip0_443_333)">
<path d="M2.59453 0H17.3777C18.0941 0.0347656 18.7633 0.511719 19.0164 1.18438C19.2984 1.91172 19.5742 2.64219 19.8109 3.38594C19.975 3.87656 19.9773 4.42422 19.7922 4.90938C19.6105 5.40273 19.2285 5.81445 18.7512 6.03437C18.7484 8.18867 18.7508 10.343 18.75 12.4973C19.0484 12.5051 19.3465 12.6082 19.5703 12.8086C19.8172 13.0199 19.9656 13.3305 20 13.6516V15.0895C19.9676 15.4406 19.7918 15.7781 19.509 15.9914C19.2934 16.1602 19.0219 16.2441 18.75 16.2527C18.7496 16.8637 18.7504 17.475 18.75 18.0859C18.7512 18.3621 18.6992 18.6398 18.5844 18.8918C18.3062 19.5277 17.6531 19.9695 16.9605 20H3.04922C2.575 19.9758 2.11133 19.7727 1.78125 19.4293C1.44336 19.0852 1.24961 18.6063 1.25078 18.1238C1.24883 17.5 1.25078 16.8766 1.25 16.2531C0.912891 16.2457 0.578906 16.1086 0.347266 15.8621C0.147656 15.6578 0.0320312 15.3832 0 15.1016V13.6578C0.0304687 13.3441 0.171484 13.0398 0.407812 12.8285C0.634375 12.616 0.941406 12.5043 1.25 12.4973C1.24922 10.3426 1.25156 8.18828 1.24883 6.03359C0.829297 5.83203 0.491016 5.47734 0.295703 5.05664C0.0605469 4.55742 0.0136719 3.97148 0.173438 3.44258C0.365625 2.82109 0.591016 2.21055 0.821484 1.60234C0.936328 1.31172 1.02773 1.0043 1.22148 0.753125C1.53984 0.315234 2.05742 0.0433594 2.59453 0ZM2.55273 1.27422C2.35977 1.32656 2.20234 1.4793 2.13555 1.6668C1.86562 2.36758 1.6 3.0707 1.37461 3.7875C1.2707 4.10625 1.32695 4.48438 1.55547 4.73633C1.78594 4.98867 2.17305 5.05508 2.48945 4.94805C2.65664 4.8957 2.78828 4.775 2.94336 4.69844C3.45859 4.43437 4.10391 4.44414 4.60938 4.72734C4.72578 4.79063 4.82852 4.8793 4.9543 4.92578C5.18125 5.01758 5.44336 5.01758 5.67031 4.92578C5.79609 4.8793 5.89922 4.79063 6.01562 4.72656C6.53086 4.43906 7.19063 4.43437 7.71016 4.71367C7.84531 4.78398 7.96211 4.88945 8.10898 4.93711C8.40156 5.0457 8.74414 4.99805 8.99727 4.81602C9.58125 4.40547 10.4172 4.40508 11.0016 4.81523C11.3254 5.05273 11.7965 5.05352 12.1211 4.8168C12.7059 4.40586 13.543 4.40547 14.1281 4.81641C14.373 4.99219 14.702 5.04258 14.9879 4.94688C15.175 4.8918 15.3168 4.74883 15.4949 4.675C15.9844 4.45078 16.575 4.45977 17.0566 4.7C17.2133 4.775 17.3438 4.89922 17.5133 4.94766C17.8641 5.06367 18.3039 4.96445 18.5223 4.65273C18.6973 4.4043 18.7203 4.07266 18.6273 3.78867C18.3961 3.06172 18.1273 2.34766 17.8504 1.63711C17.7602 1.40352 17.5172 1.24453 17.2676 1.25078C12.4367 1.24883 7.60586 1.25078 2.77461 1.24961C2.70039 1.25039 2.625 1.25352 2.55273 1.27422ZM3.43672 5.85781C3.15859 6.05 2.83359 6.16797 2.50039 6.21797C2.49961 8.31172 2.5 10.4059 2.5 12.5C3.82461 12.5 5.14922 12.5004 6.47383 12.4996C6.84766 11.4238 7.74297 10.5543 8.82266 10.1977C8.49922 9.92773 8.25742 9.55586 8.16758 9.14219C8.04492 8.5875 8.1957 7.98047 8.56406 7.54766C8.92148 7.11758 9.47813 6.86133 10.0383 6.87695C10.5723 6.8832 11.0953 7.13633 11.4355 7.54688C11.7969 7.97266 11.9496 8.56523 11.8387 9.11211C11.7555 9.53828 11.5082 9.9207 11.1781 10.1984C12.2586 10.5523 13.1512 11.4254 13.5266 12.4992C14.8508 12.5008 16.1754 12.4996 17.5 12.5C17.5 10.4086 17.5004 8.31758 17.4996 6.22617C17.1645 6.17656 16.8406 6.05156 16.5625 5.85703C16.3824 5.72188 16.1184 5.72148 15.9379 5.85664C15.209 6.36836 14.166 6.36914 13.4371 5.85625C13.2562 5.72187 12.9922 5.72148 12.8117 5.85742C12.1074 6.35 11.109 6.3707 10.3867 5.9043C10.2727 5.82539 10.1457 5.75 10.0016 5.75547C9.85703 5.74844 9.72969 5.82422 9.61563 5.90352C8.90117 6.36328 7.91563 6.35313 7.21367 5.87344C7.09453 5.78594 6.94453 5.73594 6.79648 5.76133C6.64102 5.7793 6.52461 5.89258 6.3918 5.96328C5.67734 6.36797 4.73555 6.32852 4.06211 5.85625C3.88086 5.72227 3.61719 5.72227 3.43672 5.85781ZM9.89141 8.13438C9.58867 8.18477 9.34883 8.4832 9.37656 8.79141C9.39102 9.10859 9.68281 9.38164 10.0004 9.37461C10.3477 9.3832 10.6559 9.05547 10.623 8.70898C10.609 8.35195 10.243 8.06133 9.89141 8.13438ZM9.20039 11.3824C8.63008 11.5746 8.13594 11.9789 7.83398 12.4996C9.27812 12.5004 10.7227 12.5 12.1668 12.4996C11.8539 11.9625 11.3375 11.5461 10.7422 11.3637C10.2434 11.207 9.69531 11.2137 9.20039 11.3824ZM1.25 13.75C1.25 14.1668 1.25 14.5832 1.25 15C7.08359 15 12.9168 15 18.75 15C18.75 14.5832 18.75 14.1668 18.75 13.75C12.9168 13.75 7.0832 13.75 1.25 13.75ZM2.5 16.25C2.50039 16.8762 2.49922 17.502 2.50078 18.1281C2.49297 18.4594 2.79336 18.7555 3.12344 18.7492C7.70742 18.7504 12.2914 18.7504 16.8754 18.7496C17.1355 18.7539 17.382 18.5734 17.4656 18.3285C17.507 18.2137 17.4996 18.0898 17.5004 17.9699C17.4996 17.3969 17.5004 16.8234 17.5 16.25C12.5 16.25 7.5 16.25 2.5 16.25Z" fill="#313131"/>
</g>
<defs>
<clipPath id="clip0_443_333">
<rect width="20" height="20" fill="white"/>
</clipPath>
</defs>
</svg>
