<svg width="22" height="14" viewBox="0 0 22 14" fill="none" xmlns="http://www.w3.org/2000/svg">
<path d="M9.81075 0.0620197C11.471 -0.112834 13.1691 0.0804902 14.7473 0.625164C16.0398 1.06846 17.2511 1.74612 18.3072 2.613C19.5751 3.65145 20.6156 4.96491 21.3384 6.43557C21.418 6.58621 21.4845 6.74587 21.5075 6.91621V7.07998C21.4755 7.36812 21.3101 7.6144 21.1857 7.86929C19.9708 10.1777 17.9447 12.0449 15.5444 13.0669C13.472 13.9617 11.1332 14.2215 8.91432 13.8094C6.48237 13.3661 4.20681 12.1146 2.53379 10.2947C1.7765 9.47581 1.1403 8.54572 0.648981 7.54462C0.573868 7.40178 0.513121 7.2495 0.492188 7.0886V6.92606C0.511479 6.75162 0.582077 6.5899 0.662526 6.43598C1.45388 4.82371 2.62861 3.40148 4.06397 2.3224C5.72672 1.06558 7.73672 0.273404 9.81075 0.0620197ZM6.07479 3.26891C4.57786 4.15836 3.33459 5.46648 2.51819 7.00405C3.47291 8.77763 4.9957 10.2397 6.81115 11.1127C8.11106 11.7477 9.55422 12.0736 10.9994 12.0875C13.0977 12.099 15.1865 11.3762 16.848 10.0981C17.9324 9.26976 18.8334 8.20504 19.4807 7.00405C18.6959 5.52805 17.5195 4.26221 16.101 3.37686C14.6069 2.43527 12.8481 1.92261 11.0823 1.91071C9.33052 1.89224 7.57747 2.36919 6.07479 3.26891Z" fill="#575757"/>
<path d="M10.4847 3.13218C11.3487 3.01356 12.2493 3.19909 12.9971 3.64689C13.7926 4.11769 14.4095 4.88113 14.7018 5.75828C14.9915 6.60751 14.9706 7.55648 14.6484 8.3934C14.341 9.20774 13.7499 9.91044 13.0016 10.355C12.2111 10.8299 11.2482 11.0076 10.3398 10.8492C9.47338 10.7014 8.66191 10.2507 8.0807 9.59111C7.488 8.92699 7.13542 8.05395 7.10094 7.1645C7.05908 6.23399 7.36692 5.29323 7.95018 4.56713C8.56873 3.78604 9.49718 3.26107 10.4847 3.13218ZM10.566 5.05517C9.83663 5.21073 9.22874 5.81122 9.06456 6.53855C8.92788 7.10252 9.05553 7.72189 9.40442 8.1853C9.73935 8.64049 10.277 8.93889 10.841 8.98158C11.4936 9.04602 12.1627 8.74721 12.5641 8.23127C12.9089 7.79619 13.0591 7.21293 12.9639 6.66579C12.874 6.11578 12.5391 5.61174 12.0666 5.31622C11.627 5.03546 11.0746 4.93942 10.566 5.05517Z" fill="#575757"/>
</svg>
