<svg width="22" height="22" viewBox="0 0 22 22" fill="none" xmlns="http://www.w3.org/2000/svg">
<rect width="22" height="22" rx="6" fill="#E7E7E7"/>
<path d="M10.2026 4.37632C10.3704 4.17543 10.6137 4.03696 10.8753 4.00833C11.2143 3.96327 11.5678 4.10361 11.7877 4.36552C12.7764 5.52017 13.7651 6.67434 14.7534 7.82992C14.9531 8.05851 15.0412 8.37955 14.9817 8.67807C14.9161 9.03573 14.6399 9.34363 14.2911 9.44549C13.925 9.56189 13.4984 9.44079 13.249 9.14838C12.8317 8.66352 12.4168 8.17679 12.0005 7.69099C11.9996 10.7841 12.0005 13.8768 12 16.9695C12.0089 17.2877 11.8603 17.605 11.6048 17.796C11.3212 18.0166 10.9152 18.0631 10.5894 17.9119C10.2279 17.7542 9.986 17.3675 9.9996 16.9732C9.9996 13.8796 10.0001 10.786 9.9996 7.6924C9.58751 8.17068 9.1787 8.65179 8.76708 9.13007C8.57253 9.36194 8.27155 9.50087 7.96869 9.4882C7.59036 9.48163 7.23078 9.23709 7.0831 8.88882C6.92933 8.54618 6.99309 8.12046 7.24016 7.8379C8.22701 6.68326 9.21574 5.53096 10.2026 4.37632Z" fill="#303030"/>
</svg>
