<svg width="22" height="22" viewBox="0 0 22 22" fill="none" xmlns="http://www.w3.org/2000/svg">
<rect width="22" height="22" rx="6" fill="#E7E7E7"/>
<path d="M10.2026 17.6237C10.3704 17.8246 10.6137 17.963 10.8753 17.9917C11.2143 18.0367 11.5678 17.8964 11.7877 17.6345C12.7764 16.4798 13.7651 15.3257 14.7534 14.1701C14.9531 13.9415 15.0412 13.6204 14.9817 13.3219C14.9161 12.9643 14.6399 12.6564 14.2911 12.5545C13.925 12.4381 13.4984 12.5592 13.249 12.8516C12.8317 13.3365 12.4168 13.8232 12.0005 14.309C11.9996 11.2159 12.0005 8.12321 12 5.03055C12.0089 4.71232 11.8603 4.39502 11.6048 4.20399C11.3212 3.98339 10.9152 3.93692 10.5894 4.08806C10.2279 4.24576 9.986 4.63252 9.9996 5.02679C9.9996 8.12039 10.0001 11.214 9.9996 14.3076C9.58751 13.8293 9.1787 13.3482 8.76708 12.8699C8.57253 12.6381 8.27155 12.4991 7.96869 12.5118C7.59036 12.5184 7.23078 12.7629 7.0831 13.1112C6.92933 13.4538 6.99309 13.8795 7.24016 14.1621C8.22701 15.3167 9.21574 16.469 10.2026 17.6237Z" fill="#303030"/>
</svg>
