<svg width="20" height="20" viewBox="0 0 20 20" fill="none" xmlns="http://www.w3.org/2000/svg">
<path d="M4.52751 10.8048C4.59841 10.8047 4.66931 10.8046 4.7402 10.8044C4.88808 10.8042 5.03594 10.8045 5.18381 10.805C5.37214 10.8057 5.56045 10.8053 5.74877 10.8046C5.89496 10.8042 6.04114 10.8043 6.18733 10.8046C6.25672 10.8047 6.32611 10.8046 6.3955 10.8043C6.78018 10.8032 7.13042 10.816 7.49992 10.9375C7.53472 10.9488 7.56953 10.9601 7.60538 10.9718C8.18042 11.1688 8.66994 11.6547 8.94523 12.1875C9.09911 12.5551 9.18506 12.8851 9.18652 13.2837C9.18678 13.3144 9.18704 13.3451 9.1873 13.3768C9.18807 13.4779 9.18853 13.5791 9.18892 13.6803C9.18908 13.7151 9.18924 13.7499 9.1894 13.7858C9.19021 13.9704 9.19077 14.1549 9.19114 14.3395C9.19157 14.5286 9.19291 14.7177 9.19447 14.9068C9.1955 15.0535 9.19582 15.2002 9.19596 15.3469C9.19614 15.4165 9.19659 15.4861 9.19732 15.5557C9.20501 16.3357 9.0504 17.0181 8.49727 17.6073C7.98848 18.1169 7.33262 18.3619 6.61551 18.3657C6.58702 18.3659 6.55852 18.3661 6.52915 18.3663C6.43562 18.3668 6.34209 18.3671 6.24855 18.3673C6.2163 18.3674 6.18405 18.3675 6.15082 18.3676C5.97999 18.3682 5.80916 18.3686 5.63832 18.3688C5.46335 18.369 5.2884 18.3699 5.11343 18.371C4.9776 18.3718 4.84176 18.372 4.70593 18.372C4.64151 18.3721 4.57709 18.3724 4.51267 18.373C3.71371 18.3789 2.98696 18.2141 2.38045 17.6578C1.88582 17.1383 1.63646 16.506 1.63363 15.7929C1.63338 15.7642 1.63312 15.7354 1.63286 15.7058C1.63209 15.6114 1.63163 15.517 1.63124 15.4225C1.63108 15.3899 1.63092 15.3574 1.63076 15.3238C1.62994 15.1511 1.62939 14.9784 1.62902 14.8057C1.62859 14.6291 1.62725 14.4525 1.62569 14.2758C1.62466 14.1385 1.62434 14.0012 1.6242 13.8639C1.62401 13.7989 1.62357 13.7339 1.62283 13.6689C1.61409 12.8417 1.81303 12.1324 2.38685 11.5128C2.57372 11.3293 2.77119 11.1974 3.00285 11.0791C3.0272 11.0665 3.05154 11.054 3.07662 11.041C3.54706 10.8143 4.01686 10.8027 4.52751 10.8048ZM3.27431 12.4532C3.03367 12.7433 2.92535 13.0636 2.92332 13.4338C2.92312 13.4606 2.92293 13.4874 2.92273 13.5151C2.92216 13.6037 2.92189 13.6922 2.92168 13.7808C2.92145 13.8427 2.92123 13.9046 2.921 13.9665C2.92059 14.0964 2.92036 14.2262 2.92023 14.356C2.92001 14.5215 2.91908 14.687 2.91796 14.8525C2.91723 14.9804 2.91703 15.1084 2.91697 15.2363C2.91685 15.2973 2.91654 15.3582 2.91603 15.4192C2.91211 15.9176 2.94918 16.3124 3.29094 16.7017C3.70608 17.0696 4.12011 17.0829 4.65401 17.0834C4.71559 17.0837 4.77717 17.084 4.83875 17.0842C4.96749 17.0847 5.09622 17.0848 5.22496 17.0848C5.38887 17.0848 5.55275 17.0859 5.71665 17.0872C5.84377 17.0881 5.97088 17.0882 6.098 17.0882C6.15837 17.0883 6.21875 17.0886 6.27912 17.0892C6.73517 17.0934 7.14149 17.0469 7.50831 16.7487C7.79326 16.4668 7.89957 16.1554 7.9019 15.7573C7.90216 15.729 7.90242 15.7006 7.90269 15.6714C7.90343 15.5783 7.90359 15.4853 7.90367 15.3923C7.90392 15.3271 7.90418 15.2618 7.90446 15.1966C7.90492 15.0601 7.90507 14.9236 7.90502 14.7871C7.90502 14.6131 7.90608 14.4391 7.90743 14.2651C7.9083 14.1304 7.90846 13.9957 7.90841 13.861C7.90851 13.7969 7.90885 13.7328 7.90946 13.6687C7.91371 13.1741 7.8631 12.794 7.51137 12.4211C7.25378 12.1986 6.96556 12.1038 6.63077 12.1025C6.60205 12.1022 6.57332 12.102 6.54372 12.1017C6.44859 12.1009 6.35345 12.1005 6.25832 12.1001C6.22573 12.0999 6.19314 12.0998 6.15956 12.0996C5.98688 12.0988 5.81421 12.0982 5.64153 12.0978C5.46391 12.0974 5.28631 12.0961 5.10869 12.0945C4.97152 12.0935 4.83436 12.0932 4.69719 12.093C4.63177 12.0928 4.56634 12.0924 4.50093 12.0917C4.03125 12.0868 3.63354 12.1172 3.27431 12.4532Z" fill="#313131"/>
<path d="M13.3843 1.63432C13.4128 1.63413 13.4413 1.63394 13.4707 1.63374C13.5642 1.63317 13.6578 1.6329 13.7513 1.63268C13.7835 1.63257 13.8158 1.63246 13.849 1.63235C14.0199 1.63177 14.1907 1.6314 14.3615 1.63123C14.5365 1.63102 14.7114 1.63008 14.8864 1.62897C15.0222 1.62824 15.1581 1.62804 15.2939 1.62798C15.3583 1.62786 15.4228 1.62755 15.4872 1.62703C16.2428 1.62139 16.8552 1.7524 17.4609 2.22656C17.5225 2.27127 17.5225 2.27127 17.5854 2.31689C18.0598 2.77026 18.3398 3.39604 18.3648 4.04963C18.365 4.10081 18.3653 4.15199 18.3656 4.20472C18.3658 4.23321 18.366 4.26171 18.3662 4.29107C18.3667 4.38461 18.367 4.47814 18.3672 4.57168C18.3674 4.62006 18.3674 4.62006 18.3676 4.66941C18.3681 4.84024 18.3685 5.01107 18.3687 5.18191C18.3689 5.35688 18.3698 5.53183 18.3709 5.7068C18.3717 5.84263 18.3719 5.97847 18.3719 6.1143C18.372 6.17872 18.3724 6.24314 18.3729 6.30756C18.3792 7.15973 18.1933 7.84917 17.6076 8.49502C17.4234 8.67585 17.2251 8.80391 16.997 8.92089C16.9726 8.93347 16.9483 8.94604 16.9232 8.959C16.4527 9.18565 15.983 9.19727 15.4723 9.19525C15.4014 9.19532 15.3305 9.19544 15.2596 9.19559C15.1118 9.19576 14.9639 9.19551 14.816 9.19496C14.6277 9.19429 14.4394 9.19468 14.2511 9.19538C14.1049 9.1958 13.9587 9.19567 13.8125 9.19536C13.7431 9.19529 13.6737 9.19538 13.6043 9.19565C12.799 9.19815 12.1122 9.01949 11.5136 8.44726C11.055 7.96472 10.8158 7.38177 10.8133 6.71631C10.8131 6.6856 10.8128 6.65488 10.8125 6.62323C10.8118 6.52206 10.8113 6.4209 10.8109 6.31973C10.8108 6.2849 10.8106 6.25008 10.8104 6.2142C10.8096 6.02965 10.8091 5.84509 10.8087 5.66054C10.8083 5.47142 10.8069 5.28233 10.8054 5.09322C10.8043 4.94653 10.804 4.79984 10.8039 4.65314C10.8037 4.58352 10.8032 4.5139 10.8025 4.44428C10.7948 3.66432 10.9494 2.98185 11.5026 2.39269C12.0114 1.88314 12.6672 1.63806 13.3843 1.63432ZM12.4218 3.32031C12.2005 3.59483 12.0975 3.84779 12.0979 4.20276C12.0977 4.2315 12.0974 4.26025 12.0971 4.28986C12.0964 4.38436 12.0963 4.47885 12.0962 4.57336C12.0959 4.63952 12.0957 4.70569 12.0954 4.77185C12.0949 4.91042 12.0948 5.04898 12.0948 5.18754C12.0948 5.36424 12.0938 5.54091 12.0924 5.71761C12.0915 5.85427 12.0914 5.99094 12.0914 6.1276C12.0913 6.1927 12.091 6.25779 12.0904 6.32288C12.0862 6.82066 12.1343 7.20344 12.4885 7.57888C12.7461 7.80136 13.0343 7.89623 13.3691 7.89753C13.3978 7.89779 13.4265 7.89805 13.4561 7.89831C13.5513 7.89908 13.6464 7.89954 13.7415 7.89993C13.7904 7.90017 13.7904 7.90017 13.8403 7.90041C14.013 7.90122 14.1856 7.90178 14.3583 7.90215C14.5359 7.90258 14.7135 7.90392 14.8911 7.90548C15.0283 7.9065 15.1655 7.90682 15.3027 7.90696C15.3681 7.90715 15.4335 7.90761 15.4989 7.90833C15.9686 7.91323 16.3663 7.88276 16.7255 7.54684C16.9662 7.25674 17.0745 6.93636 17.0765 6.56621C17.0767 6.53939 17.0769 6.51256 17.0771 6.48492C17.0777 6.39634 17.0779 6.30776 17.0782 6.21917C17.0784 6.15727 17.0786 6.09538 17.0788 6.03348C17.0792 5.90364 17.0795 5.77381 17.0796 5.64397C17.0798 5.47849 17.0808 5.31301 17.0819 5.14753C17.0826 5.01958 17.0828 4.89163 17.0829 4.76367C17.083 4.70272 17.0833 4.64177 17.0838 4.58082C17.0877 4.08241 17.0507 3.68756 16.7089 3.29833C16.2938 2.93037 15.8797 2.91707 15.3458 2.91656C15.2843 2.91631 15.2227 2.91604 15.1611 2.91577C15.0324 2.9153 14.9036 2.91516 14.7749 2.9152C14.611 2.91521 14.4471 2.91415 14.2832 2.9128C14.1561 2.91193 14.029 2.91177 13.9018 2.91181C13.8415 2.91172 13.7811 2.91138 13.7207 2.91077C13.2345 2.90633 12.7837 2.96153 12.4218 3.32031Z" fill="#313131"/>
<path d="M4.20494 1.63432C4.23344 1.63413 4.26194 1.63394 4.2913 1.63374C4.38484 1.63317 4.47837 1.6329 4.57191 1.63268C4.60416 1.63257 4.63641 1.63246 4.66964 1.63235C4.84047 1.63177 5.0113 1.6314 5.18213 1.63123C5.3571 1.63102 5.53206 1.63008 5.70703 1.62897C5.84286 1.62824 5.97869 1.62804 6.11453 1.62798C6.17895 1.62786 6.24337 1.62755 6.30779 1.62703C7.15996 1.62067 7.8494 1.80662 8.49525 2.39227C8.67607 2.57651 8.80414 2.77478 8.92112 3.00292C8.9337 3.02727 8.94627 3.05162 8.95923 3.07671C9.18587 3.54721 9.1975 4.0169 9.19547 4.52758C9.19555 4.59848 9.19567 4.66938 9.19581 4.74027C9.19598 4.88815 9.19574 5.03601 9.19519 5.18388C9.19452 5.37221 9.1949 5.56052 9.19561 5.74885C9.19603 5.89503 9.19589 6.04121 9.19559 6.1874C9.19551 6.25679 9.19561 6.32618 9.19588 6.39557C9.19707 6.78025 9.1842 7.13049 9.06272 7.49999C9.0514 7.5348 9.04008 7.5696 9.02842 7.60546C8.83267 8.17686 8.34598 8.676 7.81272 8.94531C7.45539 9.09155 7.10791 9.18518 6.72097 9.18659C6.67491 9.18698 6.67491 9.18698 6.62791 9.18737C6.52653 9.18814 6.42515 9.1886 6.32377 9.18899C6.28891 9.18915 6.25405 9.18931 6.21813 9.18947C6.03333 9.19028 5.84852 9.19084 5.66371 9.19121C5.47429 9.19164 5.28489 9.19298 5.09547 9.19454C4.94861 9.19557 4.80176 9.19589 4.65489 9.19603C4.58516 9.19621 4.51543 9.19666 4.44571 9.1974C3.64156 9.2053 2.95385 9.03149 2.35618 8.4584C1.7705 7.81633 1.62829 7.11058 1.6291 6.26769C1.62894 6.20125 1.62878 6.13481 1.62859 6.06836C1.6283 5.92955 1.62831 5.79074 1.62852 5.65193C1.62874 5.47551 1.62808 5.29912 1.62717 5.12271C1.62659 4.98557 1.62656 4.84843 1.62669 4.71129C1.62667 4.64632 1.62647 4.58136 1.62607 4.51639C1.62201 3.75954 1.75172 3.14587 2.22678 2.53906C2.25659 2.49797 2.2864 2.45688 2.31712 2.41454C2.81903 1.88929 3.48849 1.63806 4.20494 1.63432ZM3.20335 3.39843C2.9129 3.78878 2.91724 4.18462 2.91679 4.65408C2.91653 4.71566 2.91627 4.77724 2.916 4.83882C2.91553 4.96756 2.91539 5.09629 2.91543 5.22503C2.91544 5.38894 2.91437 5.55282 2.91303 5.71672C2.91215 5.84384 2.912 5.97095 2.91204 6.09807C2.91195 6.15844 2.91161 6.21882 2.911 6.27919C2.90683 6.73542 2.95355 7.14115 3.25141 7.50839C3.49268 7.75179 3.7765 7.89748 4.12217 7.90207C4.14884 7.90204 4.17551 7.902 4.20299 7.90197C4.23173 7.90223 4.26048 7.90249 4.29009 7.90276C4.38459 7.9035 4.47908 7.90366 4.57359 7.90374C4.63975 7.90399 4.70592 7.90425 4.77208 7.90453C4.91065 7.905 5.04921 7.90514 5.18777 7.9051C5.36447 7.90509 5.54114 7.90615 5.71783 7.9075C5.8545 7.90837 5.99116 7.90853 6.12783 7.90848C6.19293 7.90858 6.25802 7.90892 6.32311 7.90953C6.82089 7.91374 7.20367 7.86561 7.57911 7.51144C7.80107 7.25445 7.89525 6.96941 7.89776 6.63505C7.89802 6.60677 7.89827 6.57848 7.89854 6.54934C7.89931 6.45566 7.89976 6.36199 7.90015 6.2683C7.90031 6.23619 7.90047 6.20409 7.90064 6.171C7.90145 6.00081 7.90201 5.83062 7.90238 5.66043C7.90281 5.48553 7.90415 5.31065 7.9057 5.13576C7.90673 5.00056 7.90705 4.86537 7.90719 4.73018C7.90738 4.66577 7.90783 4.60136 7.90856 4.53696C7.91355 4.06697 7.88765 3.63206 7.54707 3.273C7.25436 3.03489 6.93752 2.92543 6.56644 2.92339C6.53961 2.92319 6.51279 2.923 6.48515 2.9228C6.39656 2.92223 6.30798 2.92196 6.2194 2.92175C6.1575 2.92152 6.0956 2.9213 6.03371 2.92107C5.90387 2.92066 5.77404 2.92043 5.6442 2.9203C5.47871 2.92008 5.31324 2.91915 5.14776 2.91803C5.01981 2.9173 4.89185 2.9171 4.7639 2.91704C4.70295 2.91692 4.642 2.91661 4.58105 2.9161C4.03105 2.91177 3.58895 2.96339 3.20335 3.39843Z" fill="#313131"/>
<path d="M14.7656 11.4453C14.9509 11.5105 15.0477 11.595 15.1562 11.7578C15.2214 11.8969 15.244 12.005 15.2432 12.1582C15.2432 12.198 15.2432 12.2379 15.2432 12.279C15.2428 12.3216 15.2424 12.3641 15.242 12.408C15.2419 12.4519 15.2417 12.4959 15.2416 12.5411C15.2412 12.6812 15.2402 12.8213 15.2392 12.9614C15.2388 13.0565 15.2385 13.1516 15.2381 13.2467C15.2373 13.4796 15.236 13.7124 15.2343 13.9453C15.2717 13.9449 15.2717 13.9449 15.3099 13.9445C15.5697 13.9419 15.8295 13.9402 16.0893 13.9389C16.1862 13.9383 16.2831 13.9375 16.3801 13.9365C16.5195 13.935 16.6589 13.9344 16.7984 13.9339C16.8416 13.9333 16.8848 13.9327 16.9293 13.932C17.1484 13.932 17.3126 13.9349 17.5 14.0625C17.6517 14.2227 17.7242 14.3636 17.749 14.5825C17.7308 14.7618 17.6825 14.8922 17.5781 15.0391C17.3976 15.1827 17.2586 15.2394 17.0303 15.2388C16.9905 15.2388 16.9506 15.2388 16.9095 15.2388C16.8665 15.2386 16.8236 15.2384 16.7793 15.2382C16.7352 15.2381 16.6912 15.2381 16.6458 15.238C16.5049 15.2378 16.364 15.2373 16.2231 15.2368C16.1277 15.2366 16.0322 15.2364 15.9368 15.2363C15.7026 15.2358 15.4685 15.2352 15.2343 15.2344C15.2347 15.2586 15.235 15.2829 15.2354 15.3079C15.2389 15.5614 15.2412 15.8149 15.2429 16.0684C15.2437 16.1628 15.2448 16.2573 15.2461 16.3518C15.248 16.488 15.2489 16.6241 15.2496 16.7602C15.2504 16.8022 15.2512 16.8442 15.252 16.8874C15.2521 17.1355 15.2289 17.3352 15.0781 17.5391C14.8735 17.7019 14.7139 17.7557 14.4531 17.7344C14.2471 17.6637 14.1037 17.569 13.9843 17.3828C13.9452 17.2655 13.9405 17.1884 13.9408 17.0659C13.9408 17.0252 13.9408 16.9845 13.9408 16.9426C13.941 16.8988 13.9412 16.855 13.9415 16.8098C13.9415 16.7649 13.9416 16.72 13.9416 16.6737C13.9418 16.53 13.9423 16.3864 13.9428 16.2427C13.943 16.1453 13.9432 16.048 13.9434 15.9507C13.9438 15.7119 13.9444 15.4731 13.9453 15.2344C13.9089 15.2349 13.9089 15.2349 13.8717 15.2354C13.6183 15.2389 13.3648 15.2412 13.1113 15.243C13.0168 15.2437 12.9223 15.2448 12.8278 15.2462C12.6917 15.2481 12.5555 15.2489 12.4194 15.2496C12.3774 15.2504 12.3355 15.2512 12.2922 15.2521C12.0416 15.2521 11.8485 15.2254 11.6406 15.0781C11.4592 14.8874 11.4313 14.7278 11.4343 14.4728C11.456 14.2793 11.5634 14.1742 11.7041 14.0503C11.84 13.9537 11.9087 13.9405 12.0739 13.9409C12.136 13.9409 12.136 13.9409 12.1995 13.9409C12.2668 13.9412 12.2668 13.9412 12.3355 13.9415C12.3813 13.9415 12.4272 13.9416 12.4744 13.9417C12.6213 13.9419 12.7681 13.9424 12.915 13.9429C13.0144 13.9431 13.1138 13.9432 13.2132 13.9434C13.4572 13.9438 13.7012 13.9445 13.9453 13.9453C13.9449 13.9199 13.9446 13.8945 13.9442 13.8683C13.9408 13.6034 13.9384 13.3385 13.9367 13.0736C13.9359 12.9748 13.9348 12.876 13.9335 12.7772C13.9316 12.6351 13.9307 12.4929 13.93 12.3508C13.9288 12.2846 13.9288 12.2846 13.9276 12.2172C13.9275 11.973 13.9358 11.8252 14.1015 11.6406C14.3241 11.4445 14.474 11.4206 14.7656 11.4453Z" fill="#313131"/>
</svg>
