<svg width="20" height="20" viewBox="0 0 20 20" fill="none" xmlns="http://www.w3.org/2000/svg">
<path d="M4.528 10.8048C4.5989 10.8047 4.66979 10.8046 4.74069 10.8044C4.88856 10.8042 5.03643 10.8045 5.1843 10.805C5.37263 10.8057 5.56094 10.8053 5.74926 10.8046C5.89545 10.8042 6.04163 10.8043 6.18782 10.8046C6.25721 10.8047 6.3266 10.8046 6.39599 10.8043C6.78067 10.8032 7.1309 10.816 7.50041 10.9375C7.53521 10.9488 7.57002 10.9601 7.60587 10.9718C8.18091 11.1688 8.67043 11.6547 8.94572 12.1875C9.0996 12.5551 9.18555 12.8851 9.18701 13.2837C9.18727 13.3144 9.18753 13.3451 9.18779 13.3768C9.18856 13.4779 9.18902 13.5791 9.18941 13.6803C9.18957 13.7151 9.18972 13.7499 9.18989 13.7858C9.1907 13.9704 9.19126 14.1549 9.19163 14.3395C9.19206 14.5286 9.1934 14.7177 9.19495 14.9068C9.19598 15.0535 9.1963 15.2002 9.19644 15.3469C9.19663 15.4165 9.19708 15.4861 9.19781 15.5557C9.2055 16.3357 9.05089 17.0181 8.49775 17.6073C7.98897 18.1169 7.33311 18.3619 6.616 18.3657C6.5875 18.3659 6.55901 18.3661 6.52964 18.3663C6.43611 18.3668 6.34257 18.3671 6.24904 18.3673C6.21679 18.3674 6.18454 18.3675 6.15131 18.3676C5.98048 18.3682 5.80964 18.3686 5.63881 18.3688C5.46384 18.369 5.28888 18.3699 5.11392 18.371C4.97808 18.3718 4.84225 18.372 4.70642 18.372C4.642 18.3721 4.57758 18.3724 4.51316 18.373C3.7142 18.3789 2.98745 18.2141 2.38093 17.6578C1.88631 17.1383 1.63695 16.506 1.63412 15.7929C1.63386 15.7642 1.63361 15.7354 1.63334 15.7058C1.63258 15.6114 1.63212 15.517 1.63173 15.4225C1.63157 15.3899 1.63141 15.3574 1.63125 15.3238C1.63043 15.1511 1.62987 14.9784 1.62951 14.8057C1.62908 14.6291 1.62773 14.4525 1.62618 14.2758C1.62515 14.1385 1.62483 14.0012 1.62469 13.8639C1.6245 13.7989 1.62405 13.7339 1.62332 13.6689C1.61457 12.8417 1.81351 12.1324 2.38734 11.5128C2.57421 11.3293 2.77168 11.1974 3.00334 11.0791C3.02768 11.0665 3.05203 11.054 3.07711 11.041C3.54755 10.8143 4.01734 10.8027 4.528 10.8048ZM3.27479 12.4532C3.03416 12.7433 2.92584 13.0636 2.9238 13.4338C2.92361 13.4606 2.92342 13.4874 2.92322 13.5151C2.92265 13.6037 2.92238 13.6922 2.92216 13.7808C2.92194 13.8427 2.92171 13.9046 2.92149 13.9665C2.92108 14.0964 2.92085 14.2262 2.92071 14.356C2.9205 14.5215 2.91956 14.687 2.91845 14.8525C2.91772 14.9804 2.91752 15.1084 2.91746 15.2363C2.91734 15.2973 2.91703 15.3582 2.91651 15.4192C2.91259 15.9176 2.94967 16.3124 3.29143 16.7017C3.70657 17.0696 4.1206 17.0829 4.65449 17.0834C4.71608 17.0837 4.77766 17.084 4.83924 17.0842C4.96798 17.0847 5.09671 17.0848 5.22545 17.0848C5.38936 17.0848 5.55324 17.0859 5.71714 17.0872C5.84425 17.0881 5.97137 17.0882 6.09849 17.0882C6.15886 17.0883 6.21923 17.0886 6.27961 17.0892C6.73565 17.0934 7.14198 17.0469 7.5088 16.7487C7.79375 16.4668 7.90006 16.1554 7.90238 15.7573C7.90265 15.729 7.90291 15.7006 7.90318 15.6714C7.90392 15.5783 7.90407 15.4853 7.90416 15.3923C7.90441 15.3271 7.90467 15.2618 7.90495 15.1966C7.90541 15.0601 7.90556 14.9236 7.90551 14.7871C7.9055 14.6131 7.90657 14.4391 7.90792 14.2651C7.90879 14.1304 7.90894 13.9957 7.9089 13.861C7.90899 13.7969 7.90934 13.7328 7.90994 13.6687C7.9142 13.1741 7.86359 12.794 7.51185 12.4211C7.25427 12.1986 6.96605 12.1038 6.63126 12.1025C6.60253 12.1022 6.57381 12.102 6.54421 12.1017C6.44907 12.1009 6.35394 12.1005 6.2588 12.1001C6.22621 12.0999 6.19363 12.0998 6.16005 12.0996C5.98737 12.0988 5.81469 12.0982 5.64201 12.0978C5.46439 12.0974 5.28679 12.0961 5.10918 12.0945C4.97201 12.0935 4.83485 12.0932 4.69768 12.093C4.63225 12.0928 4.56683 12.0924 4.50141 12.0917C4.03174 12.0868 3.63403 12.1172 3.27479 12.4532Z" fill="#313131"/>
<path d="M13.3848 1.63432C13.4133 1.63413 13.4418 1.63394 13.4712 1.63374C13.5647 1.63317 13.6582 1.6329 13.7518 1.63268C13.784 1.63257 13.8163 1.63246 13.8495 1.63235C14.0203 1.63177 14.1912 1.6314 14.362 1.63123C14.537 1.63102 14.7119 1.63008 14.8869 1.62897C15.0227 1.62824 15.1586 1.62804 15.2944 1.62798C15.3588 1.62786 15.4232 1.62755 15.4877 1.62703C16.2433 1.62139 16.8557 1.7524 17.4613 2.22656C17.523 2.27127 17.523 2.27127 17.5859 2.31689C18.0603 2.77026 18.3403 3.39604 18.3653 4.04963C18.3655 4.10081 18.3658 4.15199 18.3661 4.20472C18.3663 4.23321 18.3665 4.26171 18.3667 4.29107C18.3672 4.38461 18.3675 4.47814 18.3677 4.57168C18.3679 4.62006 18.3679 4.62006 18.3681 4.66941C18.3686 4.84024 18.369 5.01107 18.3692 5.18191C18.3694 5.35688 18.3703 5.53183 18.3714 5.7068C18.3722 5.84263 18.3724 5.97847 18.3724 6.1143C18.3725 6.17872 18.3728 6.24314 18.3734 6.30756C18.3797 7.15973 18.1938 7.84917 17.6081 8.49502C17.4239 8.67585 17.2256 8.80391 16.9975 8.92089C16.9731 8.93347 16.9488 8.94604 16.9237 8.959C16.4532 9.18565 15.9835 9.19727 15.4728 9.19525C15.4019 9.19532 15.331 9.19544 15.2601 9.19559C15.1123 9.19576 14.9644 9.19551 14.8165 9.19496C14.6282 9.19429 14.4399 9.19468 14.2516 9.19538C14.1054 9.1958 13.9592 9.19567 13.813 9.19536C13.7436 9.19529 13.6742 9.19538 13.6048 9.19565C12.7995 9.19815 12.1126 9.01949 11.5141 8.44726C11.0555 7.96472 10.8163 7.38177 10.8138 6.71631C10.8135 6.6856 10.8133 6.65488 10.813 6.62323C10.8123 6.52206 10.8118 6.4209 10.8114 6.31973C10.8113 6.2849 10.8111 6.25008 10.8109 6.2142C10.8101 6.02965 10.8096 5.84509 10.8092 5.66054C10.8088 5.47142 10.8074 5.28233 10.8059 5.09322C10.8048 4.94653 10.8045 4.79984 10.8044 4.65314C10.8042 4.58352 10.8037 4.5139 10.803 4.44428C10.7953 3.66432 10.9499 2.98185 11.5031 2.39269C12.0118 1.88314 12.6677 1.63806 13.3848 1.63432ZM12.4223 3.32031C12.201 3.59483 12.098 3.84779 12.0984 4.20276C12.0982 4.2315 12.0979 4.26025 12.0976 4.28986C12.0969 4.38436 12.0967 4.47885 12.0967 4.57336C12.0964 4.63952 12.0961 4.70569 12.0959 4.77185C12.0954 4.91042 12.0953 5.04898 12.0953 5.18754C12.0953 5.36424 12.0942 5.54091 12.0929 5.71761C12.092 5.85427 12.0919 5.99094 12.0919 6.1276C12.0918 6.1927 12.0915 6.25779 12.0909 6.32288C12.0867 6.82066 12.1348 7.20344 12.489 7.57888C12.7465 7.80136 13.0348 7.89623 13.3696 7.89753C13.3983 7.89779 13.427 7.89805 13.4566 7.89831C13.5517 7.89908 13.6469 7.89954 13.742 7.89993C13.7909 7.90017 13.7909 7.90017 13.8408 7.90041C14.0134 7.90122 14.1861 7.90178 14.3588 7.90215C14.5364 7.90258 14.714 7.90392 14.8916 7.90548C15.0288 7.9065 15.166 7.90682 15.3031 7.90696C15.3686 7.90715 15.434 7.90761 15.4994 7.90833C15.9691 7.91323 16.3668 7.88276 16.726 7.54684C16.9667 7.25674 17.075 6.93636 17.077 6.56621C17.0772 6.53939 17.0774 6.51256 17.0776 6.48492C17.0782 6.39634 17.0784 6.30776 17.0787 6.21917C17.0789 6.15727 17.0791 6.09538 17.0793 6.03348C17.0797 5.90364 17.08 5.77381 17.0801 5.64397C17.0803 5.47849 17.0813 5.31301 17.0824 5.14753C17.0831 5.01958 17.0833 4.89163 17.0834 4.76367C17.0835 4.70272 17.0838 4.64177 17.0843 4.58082C17.0882 4.08241 17.0511 3.68756 16.7094 3.29833C16.2943 2.93037 15.8802 2.91707 15.3463 2.91656C15.2847 2.91631 15.2232 2.91604 15.1616 2.91577C15.0328 2.9153 14.9041 2.91516 14.7754 2.9152C14.6115 2.91521 14.4476 2.91415 14.2837 2.9128C14.1566 2.91193 14.0295 2.91177 13.9023 2.91181C13.842 2.91172 13.7816 2.91138 13.7212 2.91077C13.235 2.90633 12.7842 2.96153 12.4223 3.32031Z" fill="#313131"/>
<path d="M4.20494 1.63432C4.23344 1.63413 4.26194 1.63394 4.2913 1.63374C4.38484 1.63317 4.47837 1.6329 4.57191 1.63268C4.60416 1.63257 4.63641 1.63246 4.66964 1.63235C4.84047 1.63177 5.0113 1.6314 5.18213 1.63123C5.3571 1.63102 5.53206 1.63008 5.70703 1.62897C5.84286 1.62824 5.97869 1.62804 6.11453 1.62798C6.17895 1.62786 6.24337 1.62755 6.30779 1.62703C7.15996 1.62067 7.8494 1.80662 8.49525 2.39227C8.67607 2.57651 8.80414 2.77478 8.92112 3.00292C8.9337 3.02727 8.94627 3.05162 8.95923 3.07671C9.18587 3.54721 9.1975 4.0169 9.19547 4.52758C9.19555 4.59848 9.19567 4.66938 9.19581 4.74027C9.19598 4.88815 9.19574 5.03601 9.19519 5.18388C9.19452 5.37221 9.1949 5.56052 9.19561 5.74885C9.19603 5.89503 9.19589 6.04121 9.19559 6.1874C9.19551 6.25679 9.19561 6.32618 9.19588 6.39557C9.19707 6.78025 9.1842 7.13049 9.06272 7.49999C9.0514 7.5348 9.04008 7.5696 9.02842 7.60546C8.83267 8.17686 8.34598 8.676 7.81272 8.94531C7.45539 9.09155 7.10791 9.18518 6.72097 9.18659C6.67491 9.18698 6.67491 9.18698 6.62791 9.18737C6.52653 9.18814 6.42515 9.1886 6.32377 9.18899C6.28891 9.18915 6.25405 9.18931 6.21813 9.18947C6.03333 9.19028 5.84852 9.19084 5.66371 9.19121C5.47429 9.19164 5.28489 9.19298 5.09547 9.19454C4.94861 9.19557 4.80176 9.19589 4.65489 9.19603C4.58516 9.19621 4.51543 9.19666 4.44571 9.1974C3.64156 9.2053 2.95385 9.03149 2.35618 8.4584C1.7705 7.81633 1.62829 7.11058 1.6291 6.26769C1.62894 6.20125 1.62878 6.13481 1.62859 6.06836C1.6283 5.92955 1.62831 5.79074 1.62852 5.65193C1.62874 5.47551 1.62808 5.29912 1.62717 5.12271C1.62659 4.98557 1.62656 4.84843 1.62669 4.71129C1.62667 4.64632 1.62647 4.58136 1.62607 4.51639C1.62201 3.75954 1.75172 3.14587 2.22678 2.53906C2.25659 2.49797 2.2864 2.45688 2.31712 2.41454C2.81903 1.88929 3.48849 1.63806 4.20494 1.63432ZM3.20335 3.39843C2.9129 3.78878 2.91724 4.18462 2.91679 4.65408C2.91653 4.71566 2.91627 4.77724 2.916 4.83882C2.91553 4.96756 2.91539 5.09629 2.91543 5.22503C2.91544 5.38894 2.91437 5.55282 2.91303 5.71672C2.91215 5.84384 2.912 5.97095 2.91204 6.09807C2.91195 6.15844 2.91161 6.21882 2.911 6.27919C2.90683 6.73542 2.95355 7.14115 3.25141 7.50839C3.49268 7.75179 3.7765 7.89748 4.12217 7.90207C4.14884 7.90204 4.17551 7.902 4.20299 7.90197C4.23173 7.90223 4.26048 7.90249 4.29009 7.90276C4.38459 7.9035 4.47908 7.90366 4.57359 7.90374C4.63975 7.90399 4.70592 7.90425 4.77208 7.90453C4.91065 7.905 5.04921 7.90514 5.18777 7.9051C5.36447 7.90509 5.54114 7.90615 5.71783 7.9075C5.8545 7.90837 5.99116 7.90853 6.12783 7.90848C6.19293 7.90858 6.25802 7.90892 6.32311 7.90953C6.82089 7.91374 7.20367 7.86561 7.57911 7.51144C7.80107 7.25445 7.89525 6.96941 7.89776 6.63505C7.89802 6.60677 7.89827 6.57848 7.89854 6.54934C7.89931 6.45566 7.89976 6.36199 7.90015 6.2683C7.90031 6.23619 7.90047 6.20409 7.90064 6.171C7.90145 6.00081 7.90201 5.83062 7.90238 5.66043C7.90281 5.48553 7.90415 5.31065 7.9057 5.13576C7.90673 5.00056 7.90705 4.86537 7.90719 4.73018C7.90738 4.66577 7.90783 4.60136 7.90856 4.53696C7.91355 4.06697 7.88765 3.63206 7.54707 3.273C7.25436 3.03489 6.93752 2.92543 6.56644 2.92339C6.53961 2.92319 6.51279 2.923 6.48515 2.9228C6.39656 2.92223 6.30798 2.92196 6.2194 2.92175C6.1575 2.92152 6.0956 2.9213 6.03371 2.92107C5.90387 2.92066 5.77404 2.92043 5.6442 2.9203C5.47871 2.92008 5.31324 2.91915 5.14776 2.91803C5.01981 2.9173 4.89185 2.9171 4.7639 2.91704C4.70295 2.91692 4.642 2.91661 4.58105 2.9161C4.03105 2.91177 3.58895 2.96339 3.20335 3.39843Z" fill="#313131"/>
<path d="M14.7661 11.4453C14.9514 11.5105 15.0482 11.595 15.1567 11.7578C15.2219 11.8969 15.2445 12.005 15.2437 12.1582C15.2437 12.198 15.2437 12.2379 15.2437 12.279C15.2433 12.3216 15.2429 12.3641 15.2425 12.408C15.2423 12.4519 15.2422 12.4959 15.2421 12.5411C15.2417 12.6812 15.2407 12.8213 15.2397 12.9614C15.2393 13.0565 15.239 13.1516 15.2386 13.2467C15.2378 13.4796 15.2365 13.7124 15.2348 13.9453C15.2722 13.9449 15.2722 13.9449 15.3104 13.9445C15.5702 13.9419 15.83 13.9402 16.0898 13.9389C16.1867 13.9383 16.2836 13.9375 16.3805 13.9365C16.52 13.935 16.6594 13.9344 16.7988 13.9339C16.8421 13.9333 16.8853 13.9327 16.9298 13.932C17.1489 13.932 17.3131 13.9349 17.5004 14.0625C17.6522 14.2227 17.7247 14.3636 17.7495 14.5825C17.7312 14.7618 17.683 14.8922 17.5786 15.0391C17.3981 15.1827 17.2591 15.2394 17.0308 15.2388C16.991 15.2388 16.9511 15.2388 16.91 15.2388C16.867 15.2386 16.824 15.2384 16.7798 15.2382C16.7357 15.2381 16.6917 15.2381 16.6463 15.238C16.5054 15.2378 16.3645 15.2373 16.2236 15.2368C16.1281 15.2366 16.0327 15.2364 15.9373 15.2363C15.7031 15.2358 15.469 15.2352 15.2348 15.2344C15.2352 15.2586 15.2355 15.2829 15.2359 15.3079C15.2393 15.5614 15.2417 15.8149 15.2434 16.0684C15.2442 16.1628 15.2453 16.2573 15.2466 16.3518C15.2485 16.488 15.2494 16.6241 15.2501 16.7602C15.2509 16.8022 15.2517 16.8442 15.2525 16.8874C15.2526 17.1355 15.2294 17.3352 15.0786 17.5391C14.874 17.7019 14.7144 17.7557 14.4536 17.7344C14.2476 17.6637 14.1041 17.569 13.9848 17.3828C13.9457 17.2655 13.941 17.1884 13.9413 17.0659C13.9413 17.0252 13.9413 16.9845 13.9413 16.9426C13.9415 16.8988 13.9417 16.855 13.9419 16.8098C13.942 16.7649 13.9421 16.72 13.9421 16.6737C13.9423 16.53 13.9428 16.3864 13.9433 16.2427C13.9435 16.1453 13.9437 16.048 13.9439 15.9507C13.9443 15.7119 13.9449 15.4731 13.9458 15.2344C13.9094 15.2349 13.9094 15.2349 13.8722 15.2354C13.6187 15.2389 13.3653 15.2412 13.1118 15.243C13.0173 15.2437 12.9228 15.2448 12.8283 15.2462C12.6922 15.2481 12.556 15.2489 12.4199 15.2496C12.3779 15.2504 12.336 15.2512 12.2927 15.2521C12.0421 15.2521 11.849 15.2254 11.6411 15.0781C11.4597 14.8874 11.4318 14.7278 11.4348 14.4728C11.4565 14.2793 11.5638 14.1742 11.7045 14.0503C11.8405 13.9537 11.9092 13.9405 12.0744 13.9409C12.1365 13.9409 12.1365 13.9409 12.1999 13.9409C12.2673 13.9412 12.2673 13.9412 12.336 13.9415C12.3818 13.9415 12.4276 13.9416 12.4749 13.9417C12.6217 13.9419 12.7686 13.9424 12.9155 13.9429C13.0149 13.9431 13.1143 13.9432 13.2136 13.9434C13.4577 13.9438 13.7017 13.9445 13.9458 13.9453C13.9454 13.9199 13.9451 13.8945 13.9447 13.8683C13.9412 13.6034 13.9389 13.3385 13.9372 13.0736C13.9364 12.9748 13.9353 12.876 13.934 12.7772C13.9321 12.6351 13.9312 12.4929 13.9305 12.3508C13.9293 12.2846 13.9293 12.2846 13.9281 12.2172C13.928 11.973 13.9363 11.8252 14.102 11.6406C14.3246 11.4445 14.4745 11.4206 14.7661 11.4453Z" fill="#313131"/>
</svg>
