<svg width="20" height="20" viewBox="0 0 20 20" fill="none" xmlns="http://www.w3.org/2000/svg">
<g clip-path="url(#clip0_142_6823)">
<path d="M7.68477 0H7.94688C8.24531 0.028125 8.5418 0.108594 8.79961 0.264453C9.13867 0.471094 9.46758 0.69375 9.80508 0.903516C9.92109 0.983594 10.0793 0.982031 10.1957 0.903906C10.525 0.700391 10.8453 0.483594 11.1742 0.280469C11.4391 0.117188 11.7438 0.0285156 12.0523 0H12.3078C12.9141 0.053125 13.4914 0.395703 13.8012 0.923828C14.0066 1.28516 14.1828 1.66289 14.3809 2.02852C14.4437 2.15664 14.5836 2.2332 14.7258 2.21992C15.1168 2.2082 15.5074 2.17812 15.8988 2.16875C16.4066 2.16133 16.9137 2.3668 17.2715 2.72773C17.623 3.07695 17.8289 3.56797 17.8301 4.06406C17.8254 4.46992 17.7906 4.875 17.7797 5.28047C17.7707 5.40977 17.8324 5.54102 17.948 5.6043C18.1488 5.71914 18.359 5.8168 18.5629 5.92617C18.8398 6.07188 19.134 6.19805 19.3664 6.41328C19.7449 6.75078 19.9719 7.24258 20 7.74727V7.91719C19.9777 8.26484 19.868 8.60586 19.6762 8.89727C19.4848 9.20039 19.2863 9.49961 19.0961 9.80391C19.0168 9.91992 19.0164 10.0785 19.0957 10.1949C19.2906 10.5078 19.4953 10.8148 19.6914 11.1273C19.8754 11.4125 19.9781 11.7449 20 12.0828V12.25C19.9699 12.8777 19.618 13.4809 19.0758 13.8016C18.7141 14.0074 18.3359 14.1836 17.9699 14.3816C17.8453 14.4434 17.7687 14.5777 17.7797 14.7168C17.7906 15.1109 17.8219 15.5047 17.8305 15.8992C17.8391 16.4348 17.6082 16.9684 17.2121 17.3293C16.8586 17.6547 16.3797 17.8375 15.8992 17.8309C15.5051 17.8219 15.1117 17.7914 14.718 17.7797C14.5789 17.7691 14.4437 17.8445 14.382 17.9695C14.1832 18.3359 14.0066 18.7148 13.8004 19.0773C13.4859 19.6102 12.8984 19.957 12.2836 20H12.0543C11.7176 19.9707 11.3879 19.8645 11.1055 19.6773C10.8012 19.4859 10.502 19.2859 10.1961 19.0965C10.0797 19.0172 9.92148 19.0164 9.80508 19.0961C9.4918 19.293 9.18281 19.4969 8.86953 19.6941C8.59492 19.8715 8.27617 19.9711 7.95156 20H7.71445C7.09023 19.9559 6.4957 19.5969 6.18438 19.052C5.99219 18.7055 5.81992 18.348 5.63438 17.998C5.58047 17.8895 5.48242 17.791 5.35469 17.7836C4.80898 17.7672 4.25859 17.884 3.71563 17.7961C3.04883 17.673 2.47187 17.1668 2.26562 16.5207C2.09883 16.0418 2.19883 15.5305 2.20664 15.0371C2.20391 14.8418 2.27891 14.5988 2.11797 14.4457C1.96719 14.325 1.78164 14.2598 1.61484 14.1652C1.25117 13.9648 0.846094 13.816 0.553516 13.5098C0.233984 13.1934 0.0488281 12.7602 0 12.316V12.0281C0.034375 11.7387 0.113281 11.4516 0.264844 11.2004C0.471094 10.8613 0.694922 10.5328 0.903906 10.1953C0.982812 10.0789 0.983203 9.92109 0.904297 9.80469C0.708984 9.49219 0.504687 9.18555 0.308984 8.87305C0.134375 8.60547 0.0378906 8.29531 0 7.97969V7.69219C0.0542969 7.08555 0.397266 6.5082 0.925391 6.19766C1.2875 5.99375 1.66445 5.8168 2.02969 5.61836C2.15625 5.55508 2.2332 5.41641 2.21953 5.275C2.20859 4.89648 2.18047 4.51875 2.16953 4.13984C2.16172 3.85508 2.21523 3.56836 2.33125 3.30742C2.55938 2.78242 3.03672 2.37539 3.59102 2.23203C3.98828 2.1207 4.40234 2.19023 4.80742 2.19883C5 2.20195 5.19375 2.23516 5.38633 2.21094C5.53438 2.1875 5.61562 2.04766 5.67578 1.925C5.84414 1.59844 6.00703 1.26953 6.18398 0.947656C6.49062 0.409766 7.07227 0.0585938 7.68477 0ZM7.71328 1.58359C7.62383 1.61484 7.55547 1.68633 7.51367 1.76992C7.32891 2.12031 7.15352 2.47617 6.96484 2.82461C6.63594 3.40781 5.98242 3.7875 5.31289 3.78359C4.90859 3.77461 4.50469 3.74453 4.10039 3.73164C3.91289 3.71484 3.73203 3.87383 3.73242 4.06328C3.73984 4.47969 3.77578 4.89531 3.78359 5.31172C3.78789 5.98086 3.4082 6.63555 2.82539 6.96406C2.46836 7.1582 2.10352 7.33672 1.74531 7.52812C1.57773 7.61133 1.51094 7.84063 1.60781 8.00078C1.74453 8.22773 1.89414 8.44687 2.03516 8.67188C2.17852 8.89766 2.3375 9.11836 2.42148 9.37539C2.60664 9.90508 2.54219 10.5152 2.24766 10.9937C2.0418 11.3242 1.82656 11.6484 1.61953 11.9781C1.5082 12.1398 1.56914 12.3852 1.7457 12.4727C2.09531 12.6598 2.45234 12.8332 2.80117 13.0219C3.24375 13.2645 3.57812 13.6922 3.71328 14.1781C3.82695 14.5531 3.76914 14.9473 3.75703 15.3309C3.75078 15.532 3.73164 15.7332 3.73242 15.9348C3.73086 16.1246 3.91172 16.2848 4.1 16.268C4.4918 16.2555 4.8832 16.2285 5.27539 16.2164C6.01797 16.1941 6.7375 16.6535 7.04648 17.3262C7.20742 17.6352 7.36328 17.9473 7.52773 18.2547C7.61172 18.4219 7.83984 18.4891 8.00078 18.3922C8.43672 18.141 8.83203 17.8168 9.29219 17.6094C9.84258 17.3867 10.4961 17.4418 11.0004 17.7563C11.3273 17.9609 11.6504 18.173 11.9766 18.3797C12.1297 18.4844 12.3613 18.4398 12.457 18.2785C12.5734 18.0785 12.6695 17.868 12.7793 17.6641C12.9242 17.3957 13.0418 17.107 13.2469 16.8766C13.6027 16.4629 14.1422 16.2137 14.6883 16.2164C15.1035 16.2246 15.5184 16.2598 15.9336 16.2672C16.1238 16.2691 16.2844 16.0887 16.2684 15.9008C16.2551 15.5227 16.2313 15.1449 16.2172 14.7672C16.1914 14.1961 16.441 13.6223 16.8734 13.2496C17.1035 13.0434 17.3926 12.925 17.6621 12.7816C17.859 12.6762 18.0605 12.5801 18.2559 12.4715C18.4035 12.3945 18.4773 12.2047 18.4152 12.0488C18.3387 11.8871 18.2262 11.7457 18.1348 11.593C17.9289 11.2496 17.6629 10.9328 17.552 10.5414C17.3992 10.0297 17.473 9.45469 17.7559 9.00039C17.9605 8.67344 18.1734 8.35156 18.3789 8.02461C18.4832 7.87187 18.441 7.64102 18.2809 7.54414C17.8785 7.31328 17.4477 7.13281 17.0531 6.88828C16.6594 6.62266 16.373 6.2043 16.266 5.7418C16.148 5.17656 16.2844 4.59766 16.2645 4.02695C16.2449 3.85273 16.075 3.71719 15.9008 3.73164C15.4961 3.74453 15.0918 3.77461 14.6867 3.78359C14.0082 3.78711 13.3453 3.39688 13.0215 2.80039C12.8535 2.48477 12.6914 2.16563 12.5281 1.84766C12.4844 1.76562 12.4434 1.67539 12.3629 1.62305C12.2496 1.54297 12.0902 1.54414 11.9758 1.6207C11.6422 1.83164 11.3125 2.05 10.9766 2.25781C10.3984 2.6082 9.63242 2.61484 9.04922 2.27266C8.70234 2.06211 8.36758 1.83281 8.02305 1.61992C7.93203 1.56172 7.81523 1.5457 7.71328 1.58359Z" fill="#313131"/>
<path d="M6.38788 4.98983C6.91445 4.90507 7.46991 5.00702 7.93007 5.27733C8.45429 5.57968 8.85351 6.09179 9.01366 6.67616C9.13749 7.10819 9.12929 7.57694 8.99218 8.00507C8.81484 8.57811 8.40585 9.07343 7.87968 9.36015C7.32773 9.66405 6.64999 9.73436 6.05077 9.53671C5.56093 9.3828 5.12695 9.06171 4.83476 8.64022C4.5246 8.19765 4.3746 7.6453 4.42226 7.10663C4.47265 6.49569 4.77577 5.91132 5.24531 5.51718C5.56874 5.24101 5.96913 5.05976 6.38788 4.98983ZM6.57968 6.54374C6.28984 6.60897 6.05077 6.85312 5.99296 7.14491C5.93827 7.39843 6.0207 7.67577 6.20663 7.85663C6.38866 8.04218 6.66679 8.1246 6.92031 8.06796C7.21523 8.00819 7.46093 7.76288 7.52109 7.46796C7.57734 7.21483 7.49609 6.9371 7.31171 6.75507C7.12616 6.56327 6.83867 6.48163 6.57968 6.54374Z" fill="#313131"/>
<path d="M11.6458 5.35155C12.2376 5.35155 12.8298 5.35116 13.4216 5.35155C11.7329 8.47694 10.0435 11.6016 8.35439 14.7266C7.7626 14.7266 7.17041 14.7269 6.57861 14.7262C8.26729 11.6012 9.95674 8.47655 11.6458 5.35155Z" fill="#313131"/>
<path d="M12.8353 10.4586C13.2943 10.3855 13.7744 10.4527 14.1947 10.6511C14.7803 10.923 15.2424 11.448 15.4353 12.0644C15.5842 12.5222 15.5838 13.0265 15.4349 13.484C15.2588 14.0437 14.8611 14.5281 14.3502 14.8152C13.8303 15.1105 13.1943 15.1961 12.6162 15.041C12.1236 14.9133 11.6756 14.6207 11.3623 14.2195C11.0318 13.8015 10.8494 13.2676 10.8603 12.7343C10.8681 12.134 11.1209 11.541 11.5474 11.1183C11.8931 10.7699 12.3517 10.5379 12.8353 10.4586ZM12.9912 12.0215C12.7045 12.1004 12.476 12.3551 12.4322 12.6492C12.3896 12.9019 12.4822 13.1715 12.6713 13.3441C12.8799 13.5437 13.2033 13.609 13.4728 13.5062C13.733 13.4117 13.9338 13.1703 13.974 12.8961C14.017 12.6433 13.9232 12.3742 13.7342 12.2015C13.54 12.0172 13.2478 11.9476 12.9912 12.0215Z" fill="#313131"/>
</g>
<defs>
<clipPath id="clip0_142_6823">
<rect width="20" height="20" fill="white"/>
</clipPath>
</defs>
</svg>
