<svg width="20" height="20" viewBox="0 0 20 20" fill="none" xmlns="http://www.w3.org/2000/svg">
<path d="M3.17776 2.00976C3.26331 2.00078 3.34964 1.99999 3.43558 1.9996C4.96058 2.00117 6.48558 1.99843 8.01019 2.00078C8.56839 1.99687 9.09573 2.38632 9.26487 2.9164C9.31761 3.0707 9.3344 3.23476 9.33323 3.39726C9.33206 4.93437 9.3344 6.47148 9.33206 8.00859C9.33519 8.55898 8.95784 9.08281 8.43714 9.2582C8.26175 9.32148 8.07425 9.3371 7.88909 9.33359C6.36644 9.33202 4.84339 9.33515 3.32073 9.33202C2.77855 9.33398 2.26331 8.96601 2.08167 8.45663C2.01839 8.28945 1.99651 8.10976 1.99925 7.93163C2.00159 6.38007 1.99612 4.82851 2.00198 3.27695C2.01565 2.64179 2.5473 2.07382 3.17776 2.00976ZM3.33323 3.33359C3.33284 4.88906 3.33323 6.44413 3.33323 7.9996C4.8887 8.00038 6.44417 7.99999 7.99964 7.99999C7.99964 6.44452 7.99964 4.88906 7.99925 3.3332C6.44417 3.3332 4.8887 3.3332 3.33323 3.33359Z" fill="#313131"/>
<path d="M10.6665 1.99999C11.7774 1.99999 12.8883 1.9996 13.9993 1.99999C14.0001 2.44452 13.9997 2.88866 13.9993 3.33319C12.8883 3.33358 11.7774 3.33358 10.6665 3.33319C10.6661 2.88866 10.6657 2.44452 10.6665 1.99999Z" fill="#313131"/>
<path d="M10.6668 4.6664C13.1109 4.66679 15.5551 4.6664 17.9992 4.66679C18 5.11093 18 5.55546 17.9992 5.99999C15.5551 5.99999 13.1109 5.99999 10.6664 5.99999C10.666 5.55546 10.6656 5.11093 10.6668 4.6664Z" fill="#313131"/>
<path d="M10.6668 7.33359C12.2223 7.3332 13.7773 7.3332 15.3328 7.33359C15.3344 7.77773 15.3332 8.22226 15.3336 8.6664C13.7777 8.66757 12.2223 8.66679 10.6668 8.66679C10.6664 8.22226 10.6664 7.77812 10.6668 7.33359Z" fill="#313131"/>
<path d="M3.17251 10.6773C3.27368 10.666 3.37602 10.666 3.47798 10.6664C5.00141 10.6687 6.52485 10.6633 8.04829 10.6691C8.72368 10.6773 9.32055 11.275 9.33071 11.9496C9.33579 13.5266 9.33305 15.1035 9.33188 16.6801C9.34008 17.3676 8.73813 17.9875 8.05063 17.9977C6.47368 18.0023 4.89712 17.9996 3.32016 17.9988C2.63383 18.0066 2.01313 17.4062 2.00219 16.7191C1.99672 15.2605 2.00141 13.8019 1.99985 12.3434C2.00219 12.0922 1.98071 11.8332 2.06508 11.5914C2.21782 11.1074 2.66743 10.734 3.17251 10.6773ZM3.33344 12.0004C3.33344 13.5559 3.33305 15.1109 3.33344 16.6664C4.88891 16.6668 6.44438 16.6664 7.99946 16.6668C8.00024 15.1109 7.99985 13.5555 7.99985 12C6.44438 12 4.88891 11.9996 3.33344 12.0004Z" fill="#313131"/>
<path d="M10.6668 10.6668C13.1113 10.6668 15.5555 10.6664 18 10.6672C18 11.1113 18.0004 11.5555 18 11.9996C15.5555 12.0004 13.1113 12 10.6668 11.9996C10.6664 11.5555 10.6664 11.1109 10.6668 10.6668Z" fill="#313131"/>
<path d="M10.6665 13.3332C11.7778 13.3336 12.8887 13.3324 13.9997 13.334C13.9993 13.7781 14.0001 14.2223 13.9993 14.6664C12.8883 14.6668 11.7774 14.6668 10.6665 14.6664C10.6661 14.2219 10.6657 13.7777 10.6665 13.3332Z" fill="#313131"/>
<path d="M10.6665 16.0004C12.2219 15.9996 13.7774 16 15.3325 16C15.3337 16.4445 15.3329 16.8887 15.3329 17.3332C13.7774 17.334 12.2219 17.3332 10.6665 17.3336C10.6657 16.8891 10.6661 16.4445 10.6665 16.0004Z" fill="#313131"/>
</svg>
