<svg width="20" height="20" viewBox="0 0 20 20" fill="none" xmlns="http://www.w3.org/2000/svg">
<g clip-path="url(#clip0_142_6790)">
<path d="M3.70352 0H10.1953C11.1238 0.0535156 12.0305 0.4375 12.6996 1.08555C13.3172 1.67539 13.7352 2.47187 13.8609 3.31719C13.9203 3.68047 13.9043 4.04922 13.9062 4.41523C13.9055 5.30039 13.9074 6.18555 13.9051 7.0707C13.8996 8.00742 13.5383 8.93477 12.9117 9.63086C12.2023 10.4332 11.1508 10.9203 10.0793 10.9359C8.91055 10.9402 7.7418 10.9355 6.57344 10.9383C5.86797 11.643 5.16445 12.3496 4.45742 13.0527C4.24062 13.2711 3.8918 13.3422 3.6082 13.2207C3.32148 13.1066 3.12305 12.809 3.12617 12.5008C3.12305 11.9539 3.12656 11.407 3.12461 10.8602C2.11445 10.6539 1.19883 10.0312 0.637109 9.16641C0.251953 8.58516 0.0382812 7.89844 0 7.20391V3.71055C0.0566406 2.70781 0.503906 1.73164 1.24492 1.05078C1.90781 0.424219 2.7957 0.0566406 3.70352 0ZM2.21172 2.29102C1.79883 2.71992 1.56055 3.3125 1.5625 3.9082C1.5625 4.94961 1.5625 5.99141 1.56289 7.03281C1.56211 7.48789 1.70078 7.94141 1.95195 8.3207C2.28867 8.83242 2.83242 9.20273 3.4332 9.32539C3.61484 9.36875 3.80195 9.36953 3.98711 9.38047C4.33047 9.4082 4.63008 9.69414 4.67695 10.0344C4.69844 10.2262 4.68242 10.4191 4.68828 10.6117C5.02695 10.2773 5.36094 9.93828 5.69883 9.60312C5.84297 9.4582 6.04492 9.37461 6.24961 9.37539C7.49961 9.37422 8.74961 9.37578 9.99961 9.37461C10.6047 9.37578 11.2051 9.12969 11.6363 8.70547C12.084 8.27109 12.3453 7.65273 12.3434 7.02891C12.3437 5.98789 12.3437 4.94727 12.3434 3.90625C12.3437 3.50586 12.2371 3.10664 12.041 2.75859C11.7246 2.19297 11.1645 1.76797 10.5312 1.625C10.1793 1.53437 9.81328 1.56953 9.45391 1.5625C7.60508 1.5625 5.75625 1.5625 3.90742 1.5625C3.27422 1.56016 2.64648 1.83125 2.21172 2.29102Z" fill="#313131"/>
<path d="M3.72787 3.14573C3.79897 3.12893 3.87201 3.12542 3.94467 3.12463C5.96264 3.12581 7.981 3.12424 9.99897 3.12542C10.2599 3.12307 10.5165 3.26213 10.6564 3.48284C10.8169 3.72581 10.822 4.06018 10.6693 4.30823C10.5326 4.53987 10.2693 4.68909 9.99975 4.68713C7.98139 4.68831 5.96303 4.68674 3.94428 4.68792C3.71811 4.69573 3.48881 4.60706 3.33568 4.4387C3.13607 4.23049 3.07123 3.90706 3.17318 3.63752C3.2599 3.39417 3.47592 3.20276 3.72787 3.14573Z" fill="#313131"/>
<path d="M3.72907 6.27029C3.85094 6.24294 3.97633 6.25076 4.10016 6.24998C6.06618 6.25037 8.03219 6.24919 9.99821 6.25037C10.2599 6.24763 10.5173 6.38748 10.6564 6.60896C10.8162 6.85115 10.8213 7.18396 10.6701 7.43123C10.5334 7.66404 10.2701 7.81404 10.0002 7.81209C7.98219 7.81326 5.96383 7.81169 3.94586 7.81287C3.71852 7.82107 3.48805 7.73201 3.33414 7.56248C3.13493 7.35388 3.07047 7.03005 3.1736 6.76052C3.26071 6.51755 3.47711 6.32693 3.72907 6.27029Z" fill="#313131"/>
<path d="M15.7302 7.09768C15.9427 7.0008 16.1829 7.03323 16.4087 7.04455C17.4829 7.12463 18.5068 7.6801 19.1669 8.52971C19.665 9.15666 19.9485 9.94026 20.0001 10.7371V13.9164C19.9603 14.6793 19.7044 15.4317 19.2501 16.0477C18.6841 16.8293 17.8204 17.3852 16.8755 17.5789C16.872 18.1399 16.8806 18.7012 16.8716 19.2625C16.8607 19.6383 16.5423 19.9574 16.1735 20H16.0411C15.8454 19.9809 15.6587 19.8949 15.5228 19.752C14.8239 19.0539 14.1259 18.3551 13.4271 17.6567C12.4677 17.6559 11.5079 17.6567 10.5482 17.6563C10.1556 17.6535 9.75988 17.6727 9.3712 17.6047C8.3587 17.4446 7.42511 16.8606 6.82941 16.0281C6.36105 15.3817 6.10011 14.5883 6.09464 13.7899C6.09621 13.5785 6.06925 13.3539 6.16496 13.1574C6.29191 12.8707 6.60363 12.6809 6.91691 12.7024C7.21261 12.7145 7.48956 12.9121 7.59816 13.1875C7.6798 13.3774 7.6505 13.5887 7.65714 13.7899C7.66496 14.4176 7.94269 15.0356 8.40363 15.4617C8.83058 15.8629 9.41222 16.0942 9.99816 16.0934C11.2091 16.0938 12.4196 16.0946 13.6306 16.093C13.8638 16.0781 14.1103 16.136 14.281 16.3035C14.6275 16.6434 14.9677 16.9895 15.3122 17.3317C15.3263 17.0723 15.27 16.7965 15.3825 16.5524C15.5032 16.2774 15.7935 16.0906 16.0939 16.0942C16.6618 16.093 17.2267 15.8789 17.6497 15.4992C18.1439 15.0633 18.4384 14.4114 18.4372 13.7524C18.4384 12.866 18.4368 11.9801 18.438 11.0938C18.4446 10.809 18.4204 10.5219 18.3325 10.25C18.0892 9.43323 17.3665 8.78518 16.5271 8.63479C16.2568 8.56448 15.9607 8.64338 15.7044 8.51487C15.4286 8.38479 15.247 8.08127 15.2653 7.7762C15.2751 7.48596 15.4634 7.21213 15.7302 7.09768Z" fill="#313131"/>
</g>
<defs>
<clipPath id="clip0_142_6790">
<rect width="20" height="20" fill="white"/>
</clipPath>
</defs>
</svg>
