<svg width="20" height="20" viewBox="0 0 20 20" fill="none" xmlns="http://www.w3.org/2000/svg">
<g clip-path="url(#clip0_142_6768)">
<path d="M3.67126 3.81297C3.74522 3.81281 3.81919 3.81261 3.89315 3.81235C4.09273 3.81182 4.29229 3.81202 4.49187 3.8124C4.70118 3.81269 4.91049 3.81242 5.1198 3.81223C5.47094 3.81202 5.82208 3.8123 6.17322 3.81286C6.57902 3.8135 6.98481 3.81329 7.39061 3.81265C7.73958 3.81211 8.08855 3.81204 8.43752 3.81235C8.64572 3.81253 8.85391 3.81255 9.06211 3.81217C9.25763 3.81183 9.45314 3.81206 9.64866 3.81274C9.72037 3.81289 9.79208 3.81285 9.8638 3.81259C9.96171 3.81227 10.0596 3.81267 10.1575 3.81326C10.1859 3.81299 10.2142 3.81273 10.2434 3.81246C10.425 3.81456 10.5495 3.84841 10.7031 3.94532C10.838 4.1228 10.8855 4.26086 10.8745 4.48396C10.8431 4.66368 10.7648 4.79637 10.6182 4.90904C10.4813 4.97343 10.3625 4.97733 10.2144 4.976C10.1852 4.9762 10.1559 4.97641 10.1258 4.97662C10.0281 4.97716 9.93041 4.97688 9.83268 4.9766C9.76254 4.97682 9.69239 4.9771 9.62225 4.97743C9.47124 4.97802 9.32023 4.97824 9.16921 4.97819C8.93017 4.97811 8.69113 4.97887 8.45208 4.97976C7.98745 4.98136 7.52281 4.98208 7.05818 4.98273C6.46761 4.9836 5.87705 4.98492 5.28649 4.98692C5.04914 4.98769 4.8118 4.98807 4.57446 4.98813C4.42634 4.98824 4.27823 4.98866 4.13011 4.98916C4.06176 4.98933 3.99341 4.98936 3.92505 4.98925C3.30669 4.98837 2.7397 5.01772 2.26137 5.45717C1.99344 5.78266 1.86906 6.15211 1.86953 6.56721C1.86941 6.59945 1.86929 6.63169 1.86917 6.66491C1.86884 6.7731 1.86878 6.88128 1.86872 6.98947C1.86854 7.06699 1.86834 7.1445 1.86813 7.22201C1.86762 7.43275 1.86737 7.64349 1.86719 7.85423C1.86708 7.98593 1.86692 8.11764 1.86674 8.24935C1.86621 8.66157 1.86583 9.07378 1.86568 9.486C1.86551 9.96158 1.86482 10.4372 1.86369 10.9127C1.86284 11.2805 1.86245 11.6482 1.8624 12.016C1.86236 12.2355 1.86213 12.4551 1.86143 12.6746C1.86078 12.8813 1.8607 13.088 1.86104 13.2946C1.86107 13.3703 1.8609 13.446 1.86052 13.5217C1.84883 14.177 1.84883 14.177 2.11427 14.7632C2.18485 14.8599 2.22733 14.9241 2.26564 15.0391C2.33642 15.0806 2.33642 15.0806 2.42189 15.1172C2.51572 15.1759 2.60902 15.2354 2.70204 15.2954C2.93634 15.4145 3.17272 15.4412 3.43226 15.4397C3.47567 15.4399 3.47567 15.4399 3.51996 15.4401C3.58222 15.4404 3.64447 15.4405 3.70673 15.4404C3.80545 15.4404 3.90416 15.4409 4.00288 15.4416C4.28335 15.4433 4.56381 15.4443 4.84429 15.4446C5.01638 15.4448 5.18845 15.4457 5.36053 15.4471C5.42583 15.4475 5.49113 15.4476 5.55643 15.4474C5.64785 15.4471 5.73922 15.4478 5.83063 15.4487C5.87061 15.4482 5.87061 15.4482 5.9114 15.4477C6.12055 15.4513 6.23799 15.5089 6.40626 15.625C6.60534 15.8447 6.57945 16.1334 6.56785 16.411C6.56608 16.4778 6.56608 16.4778 6.56428 16.546C6.56039 16.6874 6.55539 16.8288 6.55031 16.9702C6.54585 17.1126 6.54163 17.255 6.53759 17.3974C6.53501 17.4858 6.53215 17.5742 6.52899 17.6627C6.5277 17.7023 6.52641 17.742 6.52508 17.7828C6.52383 17.8179 6.52258 17.8529 6.52129 17.8891C6.5143 17.9686 6.5143 17.9686 6.56251 18.0078C6.71431 18.0224 6.78737 18.0035 6.90461 17.9074C6.93187 17.8856 6.95913 17.8637 6.98721 17.8412C7.01625 17.8172 7.04529 17.7933 7.07521 17.7686C7.13846 17.7178 7.20179 17.6672 7.26518 17.6166C7.29764 17.5906 7.3301 17.5646 7.36354 17.5378C7.51444 17.4188 7.66938 17.3055 7.82472 17.1924C8.08996 16.9985 8.35242 16.8013 8.61329 16.6016C8.967 16.3309 9.32429 16.0654 9.68395 15.8026C9.7939 15.7213 9.9022 15.6379 10.0103 15.5542C10.1264 15.4749 10.2276 15.4638 10.364 15.4634C10.3984 15.4632 10.4329 15.4629 10.4683 15.4627C10.5249 15.4627 10.5249 15.4627 10.5825 15.4626C10.6223 15.4624 10.6621 15.4622 10.7031 15.462C10.7896 15.4616 10.8761 15.4612 10.9626 15.461C11.0997 15.4605 11.2369 15.4598 11.374 15.4589C11.7639 15.4565 12.1539 15.4544 12.5439 15.4531C12.7823 15.4523 13.0208 15.4509 13.2593 15.4491C13.35 15.4486 13.4407 15.4483 13.5314 15.4481C13.6587 15.4479 13.786 15.447 13.9134 15.446C13.9505 15.4461 13.9876 15.4462 14.0259 15.4463C14.4601 15.441 14.8593 15.3084 15.1869 15.0159C15.4313 14.7509 15.5903 14.417 15.5913 14.056C15.5917 13.9948 15.5917 13.9948 15.592 13.9324C15.592 13.8879 15.5921 13.8433 15.5921 13.7974C15.5923 13.7504 15.5925 13.7033 15.5927 13.6548C15.5931 13.5524 15.5935 13.4501 15.5937 13.3478C15.5942 13.1857 15.5949 13.0236 15.5958 12.8616C15.5982 12.4008 15.6003 11.9399 15.6016 11.4791C15.6023 11.2245 15.6035 10.97 15.6051 10.7154C15.6059 10.5808 15.6065 10.4463 15.6066 10.3117C15.6067 10.1613 15.6077 10.011 15.6087 9.86067C15.6086 9.81652 15.6085 9.77237 15.6084 9.72689C15.611 9.47809 15.6289 9.24906 15.7422 9.02345C15.8893 8.87998 15.9958 8.82184 16.1987 8.81593C16.4066 8.81863 16.5152 8.85685 16.6797 8.98439C16.8366 9.20715 16.8134 9.44566 16.8121 9.70705C16.8124 9.78075 16.8124 9.78075 16.8127 9.85593C16.8132 9.99033 16.813 10.1247 16.8126 10.2591C16.8123 10.4003 16.8126 10.5415 16.8128 10.6827C16.813 10.9201 16.8127 11.1575 16.8122 11.3948C16.8115 11.6681 16.8117 11.9414 16.8124 12.2147C16.8129 12.4501 16.813 12.6856 16.8127 12.921C16.8125 13.0613 16.8125 13.2015 16.8129 13.3417C16.8133 13.4986 16.8127 13.6554 16.8121 13.8123C16.8123 13.8579 16.8125 13.9036 16.8128 13.9506C16.8096 14.3722 16.7379 14.7817 16.543 15.1587C16.5297 15.1848 16.5164 15.2108 16.5028 15.2377C16.3558 15.5114 16.1599 15.7233 15.9375 15.9375C15.8991 15.9771 15.8991 15.9771 15.8598 16.0175C15.4042 16.4585 14.7268 16.6499 14.1063 16.6419C14.0727 16.6413 14.039 16.6406 14.0043 16.64C13.9294 16.639 13.8544 16.638 13.7794 16.637C13.74 16.6364 13.7005 16.6359 13.6598 16.6353C13.4044 16.6321 13.149 16.6317 12.8936 16.6308C12.6702 16.6299 12.4468 16.628 12.2234 16.6239C12.0063 16.62 11.7892 16.6189 11.572 16.6195C11.49 16.6192 11.408 16.6181 11.326 16.6158C10.7012 16.5997 10.3468 16.7489 9.87805 17.1625C9.782 17.2464 9.68151 17.3218 9.57887 17.3975C9.51739 17.4446 9.45595 17.4918 9.39454 17.5391C9.10641 17.7597 8.81603 17.9769 8.52299 18.191C8.35518 18.314 8.18908 18.4388 8.02446 18.566C7.9879 18.5942 7.95134 18.6224 7.91368 18.6514C7.84336 18.7058 7.77321 18.7604 7.70326 18.8153C7.27303 19.1479 6.91153 19.2659 6.3672 19.2188C6.01062 19.1239 5.72772 18.9488 5.51759 18.645C5.27977 18.2167 5.3034 17.7901 5.32472 17.3169C5.3272 17.2511 5.32961 17.1853 5.33197 17.1195C5.33781 16.9599 5.34447 16.8003 5.35158 16.6406C5.31095 16.641 5.31095 16.641 5.26951 16.6414C5.01158 16.6438 4.75366 16.6456 4.49573 16.6467C4.36319 16.6473 4.23066 16.6481 4.09813 16.6495C2.69511 16.6627 2.69511 16.6627 2.17286 16.377C2.13386 16.3565 2.13386 16.3565 2.09406 16.3356C1.88612 16.2236 1.69891 16.0962 1.52345 15.9375C1.49963 15.9168 1.47582 15.8961 1.45128 15.8748C0.962033 15.4221 0.683679 14.7403 0.653274 14.0813C0.647468 13.8761 0.648207 13.671 0.648911 13.4657C0.648752 13.3873 0.648543 13.3088 0.648289 13.2303C0.647758 13.0187 0.647961 12.8071 0.648334 12.5955C0.648632 12.3731 0.648355 12.1508 0.648171 11.9284C0.647958 11.5552 0.648238 11.1819 0.648797 10.8086C0.649435 10.3782 0.649228 9.94777 0.648583 9.51735C0.64805 9.14658 0.647977 8.77581 0.648283 8.40504C0.648465 8.18412 0.648492 7.96322 0.648103 7.7423C0.647762 7.53453 0.648003 7.32677 0.648676 7.119C0.64883 7.04314 0.648789 6.96727 0.648528 6.89141C0.646005 6.08111 0.77376 5.41723 1.28907 4.76564C1.31808 4.72535 1.34708 4.68507 1.37697 4.64357C2.01716 3.97427 2.78723 3.80976 3.67126 3.81297Z" fill="#313131"/>
<path d="M15.7349 0.803208C15.7722 0.808092 15.8095 0.812977 15.8479 0.818009C16.1908 0.928225 16.3844 1.13567 16.5601 1.44041C16.6161 1.53367 16.6723 1.62681 16.7294 1.7194C16.7817 1.80976 16.8267 1.8981 16.871 1.99227C16.991 2.23169 17.1017 2.44055 17.3603 2.5438C17.5612 2.6068 17.7664 2.64446 17.9736 2.68065C18.0794 2.70113 18.185 2.72236 18.2905 2.74441C18.3556 2.7578 18.4209 2.77023 18.4864 2.78147C18.768 2.83578 18.9549 2.97542 19.1528 3.1787C19.329 3.45281 19.3815 3.71354 19.3185 4.0338C19.2149 4.36318 18.9624 4.601 18.7353 4.85098C18.5907 5.0125 18.4552 5.18189 18.3203 5.35155C18.2996 5.37533 18.2789 5.39911 18.2576 5.42361C18.192 5.52501 18.1914 5.57418 18.1989 5.6935C18.2018 5.74787 18.2018 5.74787 18.2048 5.80333C18.2074 5.84196 18.2101 5.88059 18.2129 5.9204C18.2162 5.98019 18.2162 5.98019 18.2195 6.0412C18.2302 6.23324 18.2434 6.42502 18.2581 6.61681C18.2881 7.02966 18.3103 7.36744 18.042 7.70995C17.8326 7.92542 17.6166 8.01466 17.3169 8.0287C16.958 8.02451 16.6558 7.87436 16.333 7.73192C16.2419 7.69205 16.1507 7.65248 16.0591 7.61369C16.0026 7.58973 15.9464 7.56516 15.8905 7.53988C15.6491 7.43706 15.4907 7.46383 15.2493 7.55104C15.1994 7.57206 15.1495 7.59335 15.0998 7.61488C15.0443 7.63793 14.9887 7.66095 14.9332 7.68393C14.8471 7.7199 14.7612 7.75612 14.6756 7.79298C14.2851 7.96028 13.9041 8.11356 13.4781 7.96838C13.1955 7.84418 13.0339 7.67125 12.9146 7.38448C12.8698 7.23513 12.8769 7.08574 12.8809 6.93114C12.8813 6.89672 12.8817 6.8623 12.8822 6.82683C12.8855 6.62831 12.895 6.4309 12.9102 6.2329C12.9132 6.18999 12.9163 6.14709 12.9195 6.10289C12.9264 6.01686 12.9354 5.93097 12.946 5.84532C12.9618 5.65074 12.9655 5.52243 12.8549 5.35658C12.7536 5.246 12.6473 5.14287 12.5391 5.03905C11.8341 4.22913 11.8341 4.22913 11.7822 3.77928C11.8176 3.42543 11.9278 3.19257 12.1994 2.96178C12.3834 2.83737 12.5811 2.79325 12.7954 2.74413C12.8403 2.73247 12.8852 2.72082 12.9315 2.70881C13.1226 2.65991 13.3098 2.61476 13.5063 2.59566C13.7188 2.57137 13.8744 2.54057 14.0197 2.3773C14.175 2.16707 14.3035 1.94326 14.4291 1.71443C14.6244 1.36511 14.8159 1.03577 15.1807 0.844712C15.3722 0.79432 15.5382 0.773983 15.7349 0.803208ZM15.5469 2.14842C15.5074 2.20548 15.4698 2.26386 15.433 2.32268C15.4097 2.35969 15.3864 2.3967 15.3624 2.43483C15.3379 2.47406 15.3134 2.51328 15.2881 2.5537C15.1471 2.77884 15.0055 3.00354 14.8575 3.22417C14.837 3.25497 14.8165 3.28576 14.7953 3.31749C14.6362 3.50477 14.4339 3.54935 14.2046 3.60396C14.1736 3.6116 14.1427 3.61923 14.1108 3.6271C14.0126 3.65128 13.9143 3.675 13.8159 3.69872C13.7491 3.71509 13.6822 3.73149 13.6153 3.74793C13.452 3.78802 13.2885 3.8277 13.125 3.86717C13.2526 4.04094 13.3808 4.20958 13.5278 4.36766C13.5724 4.41698 13.5724 4.41698 13.6179 4.4673C13.6813 4.53745 13.7449 4.60732 13.8089 4.67696C13.8402 4.71266 13.8715 4.74836 13.9038 4.78514C13.9324 4.81697 13.9609 4.84879 13.9903 4.88158C14.1941 5.21593 14.1395 5.59211 14.1064 5.96678C14.0983 6.06667 14.0903 6.16657 14.0823 6.26647C14.0786 6.31021 14.0748 6.35396 14.0709 6.39903C14.0628 6.51907 14.061 6.63753 14.0625 6.7578C14.0894 6.74678 14.1163 6.73577 14.1441 6.72442C15.016 6.36877 15.016 6.36877 15.332 6.25975C15.3663 6.24787 15.4005 6.23598 15.4358 6.22374C15.7853 6.18342 16.1278 6.37632 16.4404 6.50877C16.5346 6.54859 16.6289 6.58811 16.7233 6.62749C16.7647 6.64499 16.806 6.6625 16.8486 6.68053C16.9529 6.72544 16.9529 6.72544 17.0703 6.71874C17.0691 6.6952 17.0679 6.67167 17.0667 6.64742C17.0531 6.37177 17.0416 6.09608 17.0312 5.8203C17.0298 5.78473 17.0284 5.74916 17.0269 5.71251C17.0234 5.61742 17.021 5.52237 17.019 5.42723C17.0179 5.39919 17.0167 5.37115 17.0155 5.34226C17.012 5.02989 17.2159 4.84254 17.4097 4.62157C17.6135 4.38658 17.8123 4.14821 18.0078 3.90624C17.8684 3.82648 17.7269 3.794 17.5711 3.75761C17.5157 3.74436 17.4603 3.73108 17.4049 3.71779C17.3182 3.6972 17.2315 3.67676 17.1447 3.65662C17.0605 3.63699 16.9764 3.61678 16.8924 3.59648C16.8422 3.58471 16.7921 3.57293 16.7404 3.5608C16.4949 3.48091 16.3552 3.36849 16.223 3.14864C16.1982 3.10808 16.1734 3.06752 16.1478 3.02573C16.1227 2.98356 16.0976 2.94138 16.0718 2.89793C16.0213 2.81462 15.9708 2.73136 15.9203 2.64815C15.8965 2.60909 15.8728 2.57004 15.8484 2.5298C15.7662 2.39771 15.6805 2.2719 15.5859 2.14842C15.573 2.14842 15.5602 2.14842 15.5469 2.14842Z" fill="#313131"/>
<path d="M6.00092 8.19792C6.02641 8.19783 6.05191 8.19774 6.07818 8.19765C6.16331 8.1974 6.24843 8.19743 6.33356 8.19747C6.39472 8.19735 6.45588 8.19722 6.51704 8.19707C6.68298 8.19672 6.84892 8.19663 7.01485 8.19661C7.11857 8.19658 7.2223 8.19649 7.32602 8.19639C7.68801 8.19603 8.05 8.19587 8.412 8.1959C8.7492 8.19592 9.08641 8.19551 9.42361 8.1949C9.71333 8.19438 10.003 8.19418 10.2928 8.1942C10.4657 8.19421 10.6386 8.1941 10.8116 8.19369C10.9743 8.19331 11.1369 8.1933 11.2996 8.19359C11.3592 8.19363 11.4188 8.19354 11.4784 8.1933C11.56 8.193 11.6416 8.19318 11.7232 8.19348C11.7687 8.19346 11.8143 8.19344 11.8613 8.19342C12.0643 8.20851 12.2186 8.24168 12.3753 8.37404C12.5148 8.54144 12.5553 8.64187 12.5486 8.86629C12.5267 9.04388 12.4519 9.15241 12.3216 9.27003C12.1665 9.37739 12.0804 9.38011 11.8913 9.38076C11.8646 9.38091 11.8379 9.38105 11.8104 9.3812C11.7205 9.38163 11.6306 9.38178 11.5407 9.38193C11.4764 9.38217 11.4121 9.38243 11.3478 9.38271C11.1728 9.38339 10.9979 9.3838 10.8229 9.38412C10.7136 9.38432 10.6043 9.38456 10.495 9.3848C10.1532 9.38555 9.81133 9.38611 9.46948 9.38643C9.07471 9.38681 8.67994 9.38784 8.28517 9.38942C7.98016 9.3906 7.67516 9.39118 7.37015 9.3913C7.18793 9.3914 7.00571 9.39175 6.82349 9.39273C6.65202 9.39364 6.48056 9.3938 6.30909 9.3934C6.24619 9.39338 6.1833 9.39363 6.12041 9.39417C6.03444 9.39486 5.94852 9.39458 5.86254 9.39407C5.81447 9.39416 5.76639 9.39425 5.71686 9.39435C5.51244 9.3642 5.39301 9.26588 5.2586 9.11378C5.17619 8.9458 5.16349 8.81655 5.19512 8.63283C5.24812 8.48575 5.32135 8.38248 5.44659 8.28615C5.63 8.20562 5.80214 8.1982 6.00092 8.19792Z" fill="#313131"/>
<path d="M5.96093 11.0484C5.99524 11.0482 6.02955 11.048 6.0649 11.0478C6.17854 11.0472 6.29218 11.047 6.40583 11.0468C6.4848 11.0465 6.56376 11.0463 6.64273 11.0461C6.8084 11.0457 6.97406 11.0454 7.13973 11.0453C7.35186 11.0451 7.56399 11.0442 7.77612 11.043C7.93929 11.0423 8.10245 11.0421 8.26562 11.042C8.34382 11.0419 8.42201 11.0416 8.50021 11.0411C8.6097 11.0404 8.71917 11.0405 8.82867 11.0408C8.87698 11.0402 8.87698 11.0402 8.92628 11.0397C9.17904 11.0415 9.3389 11.0983 9.52396 11.2793C9.64931 11.4655 9.65975 11.5993 9.62894 11.8188C9.5541 11.9903 9.45151 12.0849 9.29691 12.1875C9.14542 12.238 9.00173 12.2326 8.84383 12.2329C8.80952 12.2331 8.77521 12.2332 8.73985 12.2334C8.62621 12.234 8.51257 12.2343 8.39893 12.2345C8.31996 12.2347 8.24099 12.2349 8.16203 12.2352C7.99636 12.2356 7.8307 12.2358 7.66503 12.2359C7.45289 12.2362 7.24077 12.2371 7.02863 12.2382C6.86547 12.2389 6.7023 12.2391 6.53914 12.2392C6.46094 12.2393 6.38274 12.2396 6.30455 12.2401C6.19505 12.2408 6.08559 12.2407 5.97609 12.2405C5.94388 12.2408 5.91167 12.2412 5.87848 12.2416C5.68698 12.2402 5.55683 12.2148 5.39066 12.1094C5.217 11.9169 5.18164 11.7988 5.18421 11.5446C5.20456 11.3632 5.29921 11.257 5.43216 11.1401C5.60117 11.0366 5.76957 11.0487 5.96093 11.0484Z" fill="#313131"/>
</g>
<defs>
<clipPath id="clip0_142_6768">
<rect width="20" height="20" fill="white"/>
</clipPath>
</defs>
</svg>
