<svg width="20" height="20" viewBox="0 0 20 20" fill="none" xmlns="http://www.w3.org/2000/svg">
<g clip-path="url(#clip0_142_6782)">
<path d="M6.81668 -0.0157928C6.86168 -0.0160609 6.90667 -0.016329 6.95303 -0.0166053C7.10155 -0.0173193 7.25006 -0.0171689 7.39857 -0.0169468C7.5019 -0.017125 7.60522 -0.0173322 7.70854 -0.0175673C7.925 -0.0179587 8.14146 -0.0178305 8.35791 -0.0174332C8.60781 -0.0169845 8.85769 -0.0175349 9.10759 -0.0185815C9.34845 -0.0195523 9.5893 -0.0196491 9.83016 -0.0193972C9.93245 -0.0193912 10.0347 -0.019628 10.137 -0.0201117C10.28 -0.0206926 10.4229 -0.0202782 10.5659 -0.0196075C10.6082 -0.0199852 10.6504 -0.0203629 10.694 -0.020752C10.9312 -0.0184208 11.0694 -0.00220787 11.2499 0.15624C11.4051 0.328184 11.4705 0.472883 11.4649 0.709066C11.4179 0.974403 11.2616 1.21204 11.1327 1.4453C11.0975 1.50924 11.0975 1.50924 11.0616 1.57447C10.9539 1.77001 10.846 1.96542 10.7375 2.16055C10.5471 2.5035 10.3646 2.84928 10.1952 3.20312C10.2207 3.22487 10.2462 3.24662 10.2724 3.26903C10.7314 3.66977 11.011 4.0792 11.0619 4.69848C11.0712 5.02909 10.9807 5.34647 10.8983 5.66405C10.9346 5.68581 10.9708 5.70756 11.0082 5.72997C11.1862 5.85913 11.2492 5.97015 11.2841 6.18407C11.2987 6.37055 11.2689 6.519 11.1718 6.67968C11.0548 6.81174 10.9147 6.91388 10.7421 6.95312C10.4583 6.95778 10.1771 6.87916 9.90259 6.81485C8.5767 6.50524 7.18344 6.81607 6.03279 7.51508C5.77133 7.68071 5.53951 7.87647 5.31239 8.08593C5.27543 8.11967 5.23847 8.1534 5.20039 8.18816C4.14812 9.19274 3.8018 10.4979 3.54166 11.882C3.51226 12.0377 3.48222 12.1934 3.45226 12.349C3.4022 12.6096 3.35254 12.8702 3.30317 13.1309C3.23364 13.498 3.1634 13.865 3.09301 14.232C2.9986 14.7244 2.90439 15.2169 2.811 15.7095C2.80096 15.7625 2.7909 15.8154 2.78081 15.8683C2.63998 16.6077 2.57217 17.225 3.00771 17.8906C3.26939 18.2708 3.69035 18.5279 4.14037 18.6169C4.47053 18.6664 4.79424 18.6829 5.12726 18.6826C5.21598 18.6825 5.30468 18.6831 5.3934 18.6837C5.64516 18.6855 5.89692 18.6865 6.14869 18.6867C6.30383 18.6869 6.45895 18.6879 6.61408 18.6893C6.67276 18.6897 6.73144 18.6898 6.79012 18.6896C6.87198 18.6893 6.95379 18.69 7.03564 18.6908C7.10525 18.691 7.10525 18.691 7.17627 18.6912C7.37589 18.7219 7.49627 18.8199 7.62929 18.9673C7.75352 19.1467 7.75381 19.3203 7.73427 19.5312C7.65754 19.7529 7.51442 19.8951 7.30458 20C7.20399 20.0044 7.10443 20.0065 7.0038 20.0069C6.95719 20.0073 6.95719 20.0073 6.90964 20.0077C6.80635 20.0085 6.70307 20.0089 6.59978 20.0093C6.54668 20.0095 6.54668 20.0095 6.49251 20.0098C6.30467 20.0106 6.11682 20.0112 5.92897 20.0115C5.73626 20.0119 5.54357 20.0133 5.35087 20.0148C5.2017 20.0159 5.05253 20.0162 4.90335 20.0163C4.83242 20.0165 4.76149 20.017 4.69057 20.0177C3.74044 20.0269 2.9079 19.7476 2.21669 19.0747C1.59087 18.4381 1.2837 17.6086 1.28223 16.7223C1.285 16.4548 1.32683 16.1991 1.37715 15.9366C1.38745 15.8809 1.39771 15.8251 1.40793 15.7694C1.43848 15.6039 1.4698 15.4385 1.50121 15.2731C1.5251 15.1469 1.54874 15.0207 1.57233 14.8945C1.67787 14.3298 1.78475 13.7654 1.89307 13.2012C1.95089 12.9 2.00828 12.5988 2.06511 12.2974C2.10587 12.0815 2.14713 11.8656 2.18874 11.6498C2.21326 11.5226 2.2375 11.3954 2.26133 11.2681C2.51645 9.90725 2.94347 8.67059 3.86708 7.61718C3.89462 7.5849 3.92217 7.55262 3.95055 7.51937C4.64068 6.72763 5.53827 6.10916 6.52333 5.74218C6.51578 5.72043 6.50822 5.69867 6.50044 5.67626C6.46805 5.58134 6.437 5.48605 6.40614 5.39062C6.39084 5.34389 6.37553 5.29716 6.35976 5.24901C6.2386 4.72815 6.33984 4.21201 6.60878 3.75731C6.74803 3.55115 6.91732 3.39816 7.10927 3.24218C7.13505 3.2164 7.16083 3.19062 7.18739 3.16405C6.93247 2.68933 6.67518 2.21632 6.40858 1.74804C6.34713 1.63925 6.28578 1.5304 6.22453 1.4215C6.19226 1.36439 6.15978 1.30739 6.12695 1.2506C5.97051 0.979541 5.8729 0.745851 5.93739 0.429678C6.00267 0.26331 6.07609 0.154631 6.22589 0.0555271C6.42437 -0.0225442 6.6052 -0.0166729 6.81668 -0.0157928ZM7.73427 1.28905C7.78999 1.45622 7.83918 1.584 7.92149 1.73491C7.94277 1.77412 7.96404 1.81332 7.98596 1.8537C8.00845 1.89457 8.03093 1.93543 8.05409 1.97753C8.07703 2.0193 8.09997 2.06107 8.1236 2.1041C8.16882 2.18628 8.21413 2.26841 8.25953 2.35049C8.30986 2.44209 8.3591 2.53409 8.40764 2.62664C8.43035 2.66863 8.45306 2.71063 8.47646 2.7539C8.49499 2.78894 8.51352 2.82399 8.53261 2.8601C8.55275 2.88306 8.57289 2.90602 8.59364 2.92968C8.69385 2.93548 8.69385 2.93548 8.78896 2.92968C8.81343 2.88366 8.81343 2.88366 8.8384 2.83671C8.90029 2.72048 8.96225 2.60429 9.02427 2.48813C9.05086 2.4383 9.07741 2.38845 9.10393 2.33859C9.26252 2.04042 9.42482 1.74629 9.59942 1.45709C9.65455 1.3728 9.65455 1.3728 9.64833 1.28905C9.01669 1.28905 8.38505 1.28905 7.73427 1.28905ZM7.74159 4.47997C7.66848 4.62235 7.65171 4.76262 7.65614 4.92187C7.71906 5.10711 7.80749 5.20371 7.96864 5.31249C8.1657 5.37818 8.37181 5.36189 8.57818 5.36308C8.63209 5.36353 8.68599 5.36433 8.73989 5.36549C9.18046 5.37559 9.18046 5.37559 9.57021 5.1953C9.69152 5.05942 9.72646 4.92111 9.72646 4.7412C9.66906 4.5475 9.60128 4.41797 9.42632 4.31074C9.21037 4.2225 8.98762 4.23902 8.7579 4.24038C8.67199 4.24071 8.58617 4.23959 8.50026 4.23835C8.44512 4.23829 8.38999 4.23831 8.33485 4.23842C8.28521 4.23835 8.23556 4.23828 8.1844 4.2382C7.99477 4.26521 7.87955 4.35152 7.74159 4.47997Z" fill="#313131"/>
<path d="M13.867 7.77344C13.9143 7.78477 13.9143 7.78477 13.9626 7.79633C14.9179 8.02949 15.7828 8.45123 16.5233 9.10157C16.5551 9.12871 16.587 9.15585 16.6198 9.18381C17.8678 10.2696 18.5822 11.798 18.7108 13.4375C18.8031 15.0734 18.2709 16.6733 17.189 17.9065C17.0867 18.0208 16.9812 18.1317 16.8748 18.2422C16.8518 18.2672 16.8288 18.2922 16.8051 18.318C16.0456 19.1223 14.9613 19.6149 13.9061 19.8828C13.8794 19.8898 13.8527 19.8968 13.8252 19.904C13.0024 20.11 11.9522 20.0908 11.1326 19.8828C11.1052 19.8759 11.0778 19.869 11.0496 19.8619C9.95867 19.5803 9.01642 19.0609 8.20295 18.2813C8.15144 18.2334 8.15144 18.2334 8.09888 18.1847C6.99531 17.1293 6.37128 15.602 6.31681 14.0869C6.30068 13.3088 6.38743 12.5727 6.64045 11.8359C6.6553 11.7924 6.67016 11.7488 6.68546 11.704C7.24398 10.1713 8.38953 8.93085 9.8509 8.21534C10.3931 7.96698 10.9728 7.78537 11.5623 7.69532C11.6065 7.68817 11.6506 7.68102 11.6961 7.67365C12.3943 7.58996 13.1851 7.60181 13.867 7.77344ZM9.37482 10.1172C9.33796 10.1477 9.3011 10.1781 9.26313 10.2095C8.39065 10.9625 7.80343 12.1036 7.66706 13.2457C7.5691 14.6077 7.89559 15.8993 8.78889 16.9531C8.80549 16.973 8.82209 16.9929 8.8392 17.0133C9.61315 17.932 10.7239 18.5149 11.9139 18.6719C13.313 18.7643 14.5797 18.4485 15.6639 17.5391C15.6959 17.513 15.7279 17.4869 15.7609 17.46C15.9939 17.2632 16.1811 17.0379 16.367 16.7969C16.3936 16.7635 16.4202 16.7302 16.4476 16.6959C16.994 15.9851 17.35 15.0391 17.3826 14.1406C17.3847 14.0961 17.3867 14.0516 17.3887 14.0057C17.4081 13.1942 17.2413 12.4054 16.8748 11.6797C16.8552 11.6397 16.8356 11.5996 16.8155 11.5584C16.2525 10.455 15.2321 9.6016 14.0623 9.20411C13.9458 9.16718 13.8288 9.13336 13.7108 9.10157C13.685 9.09462 13.6593 9.08767 13.6328 9.08051C12.1428 8.70143 10.5334 9.13906 9.37482 10.1172Z" fill="#313131"/>
<path d="M14.5044 11.665C14.6588 11.8014 14.7505 11.924 14.7792 12.1275C14.7876 12.3699 14.7478 12.5397 14.5855 12.7302C14.5033 12.8169 14.4194 12.9016 14.3347 12.9858C14.3027 13.018 14.2708 13.0503 14.2379 13.0835C14.1323 13.1897 14.0263 13.2955 13.9203 13.4013C13.8653 13.4565 13.8103 13.5116 13.7553 13.5668C13.5825 13.7402 13.4094 13.9132 13.2361 14.0861C13.0576 14.2641 12.8797 14.4426 12.702 14.6213C12.5491 14.7751 12.3959 14.9286 12.2424 15.0818C12.1509 15.1732 12.0595 15.2647 11.9684 15.3564C11.8667 15.4587 11.7645 15.5605 11.6621 15.6622C11.6323 15.6924 11.6024 15.7227 11.5716 15.7539C11.3698 15.9529 11.2086 16.0742 10.9204 16.1108C10.6943 16.0831 10.5307 16.0026 10.3736 15.8374C10.283 15.6961 10.2656 15.5823 10.2613 15.4175C10.2598 15.3814 10.2583 15.3453 10.2568 15.3081C10.2982 15.0277 10.5526 14.8263 10.7437 14.635C10.791 14.5872 10.791 14.5872 10.8392 14.5385C10.9432 14.4336 11.0475 14.329 11.1518 14.2244C11.2244 14.1514 11.297 14.0785 11.3695 14.0055C11.5216 13.8528 11.6739 13.7003 11.8262 13.5478C12.002 13.3719 12.1771 13.1956 12.3521 13.019C12.521 12.8486 12.6903 12.6788 12.8599 12.5091C12.9318 12.4371 13.0035 12.3649 13.075 12.2926C13.1751 12.1914 13.2759 12.0909 13.3768 11.9905C13.4207 11.9456 13.4207 11.9456 13.4656 11.8999C13.7729 11.5968 14.0978 11.4655 14.5044 11.665Z" fill="#313131"/>
<path d="M14.4533 14.7656C14.6331 14.9454 14.7142 15.1581 14.7414 15.4077C14.7144 15.6641 14.6473 15.9147 14.4533 16.0937C14.1796 16.2812 13.9223 16.3371 13.594 16.2891C13.3496 16.2194 13.1867 16.0679 13.0471 15.8594C12.9342 15.6335 12.9263 15.3502 12.9931 15.1077C13.0962 14.8732 13.2813 14.6829 13.5137 14.5737C13.8554 14.4699 14.1805 14.5421 14.4533 14.7656Z" fill="#313131"/>
<path d="M11.5769 11.4331C11.7949 11.5597 11.98 11.7411 12.0529 11.9879C12.1128 12.2746 12.0743 12.5268 11.9139 12.7734C11.7062 13.0099 11.5086 13.1086 11.1936 13.1372C10.8749 13.1092 10.6404 12.9758 10.4295 12.7344C10.2978 12.5221 10.2744 12.2749 10.3123 12.0312C10.3971 11.7535 10.5308 11.5963 10.7777 11.4476C11.023 11.3231 11.3271 11.3151 11.5769 11.4331Z" fill="#313131"/>
</g>
<defs>
<clipPath id="clip0_142_6782">
<rect width="20" height="20" fill="white"/>
</clipPath>
</defs>
</svg>
