<svg width="18" height="18" viewBox="0 0 18 18" fill="none" xmlns="http://www.w3.org/2000/svg">
<g clip-path="url(#clip0_48_517)">
<path d="M2.7348 0H15.2596C15.9142 0.0203906 16.5596 0.27 17.048 0.708047C17.628 1.21465 17.9775 1.96664 18 2.73586V11.4919C17.9852 11.706 17.8777 11.9148 17.6984 12.0364C17.4586 12.2077 17.1109 12.2024 16.8771 12.0231C16.6901 11.887 16.5871 11.6554 16.5941 11.4261C16.5927 8.56652 16.5955 5.70656 16.5927 2.84695C16.598 2.40961 16.3976 1.97227 16.0478 1.70648C15.7866 1.4973 15.4498 1.40309 15.1186 1.4066C11.0394 1.4059 6.96023 1.40625 2.88141 1.4066C2.53336 1.40098 2.18039 1.50891 1.91391 1.73742C1.57605 2.0127 1.395 2.45039 1.40625 2.88281C1.40625 6.96199 1.4059 11.0408 1.4066 15.12C1.40344 15.4508 1.49766 15.7869 1.70648 16.0474C1.97227 16.3972 2.40926 16.598 2.8466 16.5927C5.69461 16.5955 8.54262 16.5923 11.3906 16.5941C11.6114 16.5878 11.8346 16.6816 11.9721 16.8567C12.1553 17.0786 12.1778 17.4154 12.0259 17.6597C11.9106 17.8576 11.6926 17.981 11.4662 18H2.74254C2.1041 17.9803 1.47375 17.7434 0.99 17.325C0.388125 16.8173 0.0225 16.0502 0 15.2638V2.74043C0.0210938 1.9698 0.370898 1.21605 0.95168 0.708398C1.43859 0.271406 2.08195 0.0221484 2.7348 0Z" fill="#303030"/>
<path d="M4.05842 3.28991C4.13436 3.27303 4.2124 3.27022 4.28975 3.26917C7.44221 3.27022 10.5947 3.26881 13.7468 3.26987C13.9841 3.26213 14.2235 3.37393 14.3571 3.57221C14.5192 3.80002 14.5234 4.12522 14.3676 4.35725C14.2358 4.56502 13.9894 4.68385 13.7454 4.67542C10.5813 4.67577 7.41725 4.67612 4.25354 4.67542C3.90725 4.6944 3.57326 4.42932 3.5265 4.08374C3.46146 3.73252 3.70932 3.36303 4.05842 3.28991Z" fill="#303030"/>
<path d="M4.06044 6.10206C4.13568 6.08518 4.21302 6.08272 4.28966 6.08167C7.44142 6.08272 10.5935 6.08131 13.7453 6.08237C13.991 6.07358 14.2392 6.19452 14.3704 6.40475C14.5331 6.64979 14.5156 6.99643 14.3285 7.22389C14.1911 7.39967 13.9668 7.49459 13.7453 7.48792C10.5816 7.48827 7.41786 7.48862 4.25415 7.48792C4.05833 7.49249 3.86005 7.42182 3.72189 7.28084C3.53837 7.10014 3.47052 6.81467 3.55103 6.57034C3.62275 6.33901 3.82384 6.15409 4.06044 6.10206Z" fill="#303030"/>
<path d="M4.05974 8.91452C4.13427 8.89799 4.21126 8.89518 4.28755 8.89413C5.29618 8.89448 6.30447 8.89483 7.3131 8.89413C7.47552 8.89096 7.64673 8.89835 7.79087 8.98307C8.05489 9.12229 8.2029 9.44221 8.14068 9.73401C8.08443 10.0543 7.78032 10.3028 7.45548 10.2993C6.38743 10.3025 5.31904 10.3004 4.25064 10.3004C4.04779 10.3049 3.84212 10.2265 3.70466 10.075C3.53415 9.89467 3.47368 9.62081 3.55033 9.38491C3.62134 9.15288 3.82279 8.96725 4.05974 8.91452Z" fill="#303030"/>
<path d="M9.59863 9.98477C9.68125 9.71196 9.94562 9.50735 10.2304 9.4968C10.4188 9.48977 10.5957 9.5643 10.7736 9.61528C11.5839 9.86172 12.395 10.1068 13.205 10.3543C13.3449 10.3947 13.4697 10.4745 13.5702 10.5789C14.8397 11.8519 16.1103 13.1235 17.3791 14.3972C17.7633 14.7762 17.9837 15.306 17.9999 15.8436V15.9346C17.9845 16.5228 17.7197 17.1007 17.2708 17.4836C16.9048 17.8056 16.4239 17.9835 15.9384 18H15.8466C15.4683 17.9853 15.0911 17.8809 14.7705 17.6763C14.5138 17.5195 14.312 17.2931 14.1 17.0832C12.935 15.916 11.7706 14.7481 10.6055 13.5809C10.4923 13.4719 10.4044 13.3362 10.3647 13.1833C10.1119 12.2791 9.86336 11.3741 9.61129 10.4699C9.56629 10.3128 9.54554 10.1426 9.59863 9.98477ZM11.2844 11.2395C11.4208 11.7169 11.5407 12.1996 11.6883 12.6732C12.544 13.537 13.4061 14.3951 14.2646 15.2565C14.5961 14.9256 14.9273 14.5945 15.2581 14.2626C14.4298 13.4301 13.5991 12.5997 12.7704 11.7672C12.7223 11.7232 12.6832 11.6621 12.6171 11.6445C12.1731 11.5095 11.7287 11.3741 11.2844 11.2395ZM16.252 15.2582C15.9204 15.5894 15.5882 15.9202 15.2581 16.2531C15.3618 16.3558 15.4627 16.4686 15.5991 16.5284C15.8195 16.6304 16.0927 16.6075 16.2906 16.4655C16.5297 16.3031 16.6478 15.9849 16.5669 15.7065C16.5227 15.5222 16.3831 15.3858 16.252 15.2582Z" fill="#303030"/>
</g>
<defs>
<clipPath id="clip0_48_517">
<rect width="18" height="18" fill="white"/>
</clipPath>
</defs>
</svg>
