<svg width="19" height="19" viewBox="0 0 19 19" fill="none" xmlns="http://www.w3.org/2000/svg">
<g clip-path="url(#clip0_46_394)">
<path d="M7.80893 0H7.99521C8.56633 0.0259766 9.14115 0.07125 9.69705 0.213379C11.0872 0.518418 12.3782 1.23426 13.3983 2.22322C14.3034 3.09752 14.9944 4.19187 15.3911 5.38643C15.7566 6.51455 15.8843 7.7232 15.7288 8.90068C15.5781 10.1349 15.1306 11.3325 14.4248 12.3578C13.4596 13.7754 12.0201 14.8649 10.3891 15.3978C9.51855 15.6746 8.6027 15.8175 7.68869 15.7886C6.3123 15.7522 4.94186 15.3611 3.76883 14.6356C2.4648 13.8392 1.40088 12.6547 0.752578 11.2709C0.348828 10.4251 0.119492 9.50297 0.0319141 8.57227C0.0211523 8.38115 0.0174414 8.18967 0 7.99893V7.84195C0.0218945 7.25154 0.07125 6.65816 0.219316 6.08445C0.482422 4.89176 1.05316 3.77254 1.83469 2.83627C2.82996 1.64357 4.18223 0.748496 5.67662 0.319512C6.04771 0.227852 6.4177 0.125801 6.79918 0.0860937C7.13205 0.0211523 7.47234 0.0270898 7.80893 0ZM7.73396 2.06143C6.90234 2.08369 6.0748 2.28408 5.32854 2.65221C3.82004 3.38215 2.65889 4.7949 2.24771 6.42104C1.99277 7.39033 1.99537 8.42605 2.25143 9.39461C2.63625 10.899 3.66158 12.222 5.01385 12.9827C6.31416 13.7286 7.90949 13.9353 9.35898 13.5553C10.8133 13.1942 12.1069 12.2364 12.8825 10.9547C13.7884 9.49666 13.9932 7.62746 13.4284 6.00689C12.92 4.47539 11.7314 3.19029 10.2526 2.54867C9.46363 2.20133 8.59527 2.03545 7.73396 2.06143Z" fill="#A5A5A5"/>
<path d="M3.94333 7.2029C4.08695 7.12163 4.27064 7.12089 4.41796 7.194C4.73562 7.34355 4.96087 7.63189 5.13492 7.92839C5.31527 8.22786 5.39691 8.57075 5.50044 8.90103C5.80548 9.81503 6.45415 10.578 7.22083 11.1461C7.58117 11.4122 7.96414 11.6464 8.34525 11.8817C8.48812 11.9748 8.64992 12.0594 8.73675 12.2134C8.66216 12.3889 8.43431 12.3693 8.27623 12.3808C7.54925 12.3618 6.8438 12.1206 6.19958 11.7952C5.41472 11.3885 4.71744 10.7903 4.25505 10.0318C4.00011 9.60425 3.80232 9.13779 3.70769 8.6472C3.64386 8.30097 3.60638 7.93878 3.68839 7.59218C3.7307 7.44263 3.79749 7.27861 3.94333 7.2029Z" fill="#A5A5A5"/>
<path d="M12.6401 15.0568C13.6002 14.427 14.4203 13.595 15.0604 12.6443C16.1989 13.7754 17.3341 14.9102 18.4693 16.0446C18.7947 16.3664 18.9881 16.8091 18.9999 17.267V17.339C18.9751 17.8214 18.7554 18.296 18.3765 18.6007C18.0904 18.8479 17.7178 18.974 17.3441 19H17.2432C16.992 18.9796 16.7385 18.9299 16.514 18.8108C16.2015 18.659 15.97 18.3925 15.7269 18.1524C14.6986 17.12 13.6655 16.0925 12.6401 15.0568Z" fill="#A5A5A5"/>
</g>
<defs>
<clipPath id="clip0_46_394">
<rect width="19" height="19" fill="white"/>
</clipPath>
</defs>
</svg>
